<svg xmlns="http://www.w3.org/2000/svg" xmlns:xlink="http://www.w3.org/1999/xlink" width="1000.377" height="351.131" viewBox="0 0 1000.377 351.131">
  <defs>
    <clipPath id="clip-path">
      <rect id="Rectángulo_403964" data-name="Rectángulo 403964" width="118.731" height="22.529" transform="translate(65.269 87.841)" fill="none"/>
    </clipPath>
    <clipPath id="clip-path-3">
      <rect id="Rectángulo_403966" data-name="Rectángulo 403966" width="105.859" height="22.53" transform="translate(72.204 173.879)" fill="none"/>
    </clipPath>
    <clipPath id="clip-path-5">
      <rect id="Rectángulo_403969" data-name="Rectángulo 403969" width="120.254" height="41.53" transform="translate(293.507 164.379)" fill="none"/>
    </clipPath>
    <clipPath id="clip-path-6">
      <rect id="Rectángulo_403967" data-name="Rectángulo 403967" width="120.254" height="22.53" transform="translate(293.507 164.379)" fill="none"/>
    </clipPath>
    <clipPath id="clip-path-7">
      <rect id="Rectángulo_403968" data-name="Rectángulo 403968" width="96.328" height="22.529" transform="translate(305.47 183.38)" fill="none"/>
    </clipPath>
    <clipPath id="clip-path-8">
      <rect id="Rectángulo_403972" data-name="Rectángulo 403972" width="129.658" height="41.529" transform="translate(288.805 274.102)" fill="none"/>
    </clipPath>
    <clipPath id="clip-path-9">
      <rect id="Rectángulo_403970" data-name="Rectángulo 403970" width="119.453" height="22.529" transform="translate(293.907 274.102)" fill="none"/>
    </clipPath>
    <clipPath id="clip-path-10">
      <rect id="Rectángulo_403971" data-name="Rectángulo 403971" width="129.658" height="22.529" transform="translate(288.805 293.102)" fill="none"/>
    </clipPath>
    <clipPath id="clip-path-11">
      <rect id="Rectángulo_403976" data-name="Rectángulo 403976" width="106.368" height="60.529" transform="translate(521.936 264.602)" fill="none"/>
    </clipPath>
    <clipPath id="clip-path-12">
      <rect id="Rectángulo_403973" data-name="Rectángulo 403973" width="72.128" height="22.529" transform="translate(539.056 264.602)" fill="none"/>
    </clipPath>
    <clipPath id="clip-path-13">
      <rect id="Rectángulo_403974" data-name="Rectángulo 403974" width="106.368" height="22.529" transform="translate(521.936 283.602)" fill="none"/>
    </clipPath>
    <clipPath id="clip-path-14">
      <rect id="Rectángulo_403975" data-name="Rectángulo 403975" width="98.252" height="22.529" transform="translate(523.509 302.602)" fill="none"/>
    </clipPath>
    <clipPath id="clip-path-15">
      <rect id="Rectángulo_403979" data-name="Rectángulo 403979" width="123.926" height="41.53" transform="translate(510.671 164.379)" fill="none"/>
    </clipPath>
    <clipPath id="clip-path-16">
      <rect id="Rectángulo_403977" data-name="Rectángulo 403977" width="123.926" height="22.53" transform="translate(510.671 164.379)" fill="none"/>
    </clipPath>
    <clipPath id="clip-path-17">
      <rect id="Rectángulo_403978" data-name="Rectángulo 403978" width="102.901" height="22.529" transform="translate(521.184 183.38)" fill="none"/>
    </clipPath>
    <clipPath id="clip-path-18">
      <rect id="Rectángulo_403982" data-name="Rectángulo 403982" width="211.885" height="41.53" transform="translate(727.192 164.379)" fill="none"/>
    </clipPath>
    <clipPath id="clip-path-19">
      <rect id="Rectángulo_403980" data-name="Rectángulo 403980" width="110.078" height="22.53" transform="translate(778.095 164.379)" fill="none"/>
    </clipPath>
    <clipPath id="clip-path-20">
      <rect id="Rectángulo_403981" data-name="Rectángulo 403981" width="211.885" height="22.529" transform="translate(727.192 183.38)" fill="none"/>
    </clipPath>
    <clipPath id="clip-path-21">
      <rect id="Rectángulo_403986" data-name="Rectángulo 403986" width="169.506" height="58.276" transform="translate(42.618 265.728)" fill="none"/>
    </clipPath>
    <clipPath id="clip-path-22">
      <rect id="Rectángulo_403983" data-name="Rectángulo 403983" width="169.506" height="20.276" transform="translate(42.618 265.728)" fill="none"/>
    </clipPath>
    <clipPath id="clip-path-23">
      <rect id="Rectángulo_403984" data-name="Rectángulo 403984" width="89.446" height="20.276" transform="translate(80.411 284.728)" fill="none"/>
    </clipPath>
    <clipPath id="clip-path-24">
      <rect id="Rectángulo_403985" data-name="Rectángulo 403985" width="125.174" height="20.276" transform="translate(62.547 303.728)" fill="none"/>
    </clipPath>
    <clipPath id="clip-path-25">
      <rect id="Rectángulo_403989" data-name="Rectángulo 403989" width="141.829" height="39.276" transform="translate(281.219 79.467)" fill="none"/>
    </clipPath>
    <clipPath id="clip-path-26">
      <rect id="Rectángulo_403987" data-name="Rectángulo 403987" width="141.829" height="20.276" transform="translate(281.219 79.467)" fill="none"/>
    </clipPath>
    <clipPath id="clip-path-27">
      <rect id="Rectángulo_403988" data-name="Rectángulo 403988" width="136.107" height="20.276" transform="translate(284.08 98.467)" fill="none"/>
    </clipPath>
    <clipPath id="clip-path-28">
      <rect id="Rectángulo_403992" data-name="Rectángulo 403992" width="122.405" height="39.276" transform="translate(510.932 79.467)" fill="none"/>
    </clipPath>
    <clipPath id="clip-path-29">
      <rect id="Rectángulo_403990" data-name="Rectángulo 403990" width="57.815" height="20.276" transform="translate(543.227 79.467)" fill="none"/>
    </clipPath>
    <clipPath id="clip-path-30">
      <rect id="Rectángulo_403991" data-name="Rectángulo 403991" width="122.405" height="20.276" transform="translate(510.932 98.467)" fill="none"/>
    </clipPath>
    <clipPath id="clip-path-31">
      <rect id="Rectángulo_403995" data-name="Rectángulo 403995" width="218.285" height="39.276" transform="translate(728.491 79.467)" fill="none"/>
    </clipPath>
    <clipPath id="clip-path-32">
      <rect id="Rectángulo_403993" data-name="Rectángulo 403993" width="188.227" height="20.276" transform="translate(743.521 79.467)" fill="none"/>
    </clipPath>
    <clipPath id="clip-path-33">
      <rect id="Rectángulo_403994" data-name="Rectángulo 403994" width="218.285" height="20.276" transform="translate(728.491 98.467)" fill="none"/>
    </clipPath>
    <clipPath id="clip-path-34">
      <rect id="Rectángulo_403997" data-name="Rectángulo 403997" width="417.261" height="28.162" transform="translate(287.077 10.114)" fill="none"/>
    </clipPath>
  </defs>
  <g id="Grupo_1103810" data-name="Grupo 1103810" transform="translate(-299.051 -6973.684)">
    <path id="Trazado_902028" data-name="Trazado 902028" d="M209.015,130.971H38.008a14.6,14.6,0,0,1-14.836-14.345V81.585A14.6,14.6,0,0,1,38.008,67.236H209.015a14.6,14.6,0,0,1,14.836,14.349v35.041a14.6,14.6,0,0,1-14.836,14.349" transform="translate(299.051 6973.684)" fill="#6cb8e9"/>
    <path id="Trazado_902029" data-name="Trazado 902029" d="M209.015,217.011H38.008a14.6,14.6,0,0,1-14.836-14.349V167.625a14.6,14.6,0,0,1,14.836-14.349H209.015a14.6,14.6,0,0,1,14.836,14.349v35.037a14.6,14.6,0,0,1-14.836,14.349" transform="translate(299.051 6973.684)" fill="#6cb8e9"/>
    <path id="Trazado_902030" data-name="Trazado 902030" d="M204.139,351.129H42.886c-10.888,0-19.713-8.536-19.713-19.066V257.669C23.173,247.14,32,238.6,42.886,238.6H204.139c10.887,0,19.713,8.536,19.713,19.065v74.394c0,10.53-8.826,19.066-19.713,19.066" transform="translate(299.051 6973.684)" fill="#6cb8e9"/>
    <path id="Trazado_902031" data-name="Trazado 902031" d="M439.122,130.972H267.156a14.636,14.636,0,0,1-14.874-14.386V81.623a14.636,14.636,0,0,1,14.874-14.386H439.122A14.636,14.636,0,0,1,454,81.623v34.964a14.635,14.635,0,0,1-14.874,14.386" transform="translate(299.051 6973.684)" fill="#6cb8e9"/>
    <path id="Trazado_902032" data-name="Trazado 902032" d="M439.122,217.011H267.156a14.636,14.636,0,0,1-14.874-14.386V167.662a14.636,14.636,0,0,1,14.874-14.386H439.122A14.636,14.636,0,0,1,454,167.662v34.964a14.636,14.636,0,0,1-14.874,14.386" transform="translate(299.051 6973.684)" fill="#6cb8e9"/>
    <path id="Trazado_902033" data-name="Trazado 902033" d="M434.233,351.131H272.046c-10.916,0-19.764-8.558-19.764-19.115v-74.3c0-10.556,8.848-19.114,19.764-19.114H434.233c10.916,0,19.764,8.558,19.764,19.114v74.3c0,10.557-8.848,19.115-19.764,19.115" transform="translate(299.051 6973.684)" fill="#6cb8e9"/>
    <path id="Trazado_902034" data-name="Trazado 902034" d="M650.967,130.973H491.1a14.153,14.153,0,0,1-14.384-13.912V81.15A14.153,14.153,0,0,1,491.1,67.238H650.967A14.154,14.154,0,0,1,665.354,81.15v35.911a14.153,14.153,0,0,1-14.384,13.912" transform="translate(299.051 6973.684)" fill="#6cb8e9"/>
    <path id="Trazado_902035" data-name="Trazado 902035" d="M650.967,217.011H491.1A14.153,14.153,0,0,1,476.714,203.1V167.188A14.153,14.153,0,0,1,491.1,153.276H650.967a14.153,14.153,0,0,1,14.387,13.912V203.1a14.153,14.153,0,0,1-14.384,13.912" transform="translate(299.051 6973.684)" fill="#6cb8e9"/>
    <path id="Trazado_902036" data-name="Trazado 902036" d="M646.238,351.129H495.826c-10.556,0-19.113-8.276-19.113-18.485V257.089c0-10.209,8.558-18.485,19.113-18.485H646.238c10.556,0,19.112,8.276,19.112,18.485v75.555c0,10.209-8.556,18.485-19.112,18.485" transform="translate(299.051 6973.684)" fill="#6cb8e9"/>
    <path id="Trazado_902037" data-name="Trazado 902037" d="M962.845,130.974h-258.3c-9.921,0-17.964-7.779-17.964-17.374V84.611c0-9.6,8.043-17.374,17.964-17.374h258.3c9.921,0,17.964,7.779,17.964,17.374V113.6c0,9.6-8.043,17.374-17.964,17.374" transform="translate(299.051 6973.684)" fill="#6cb8e9"/>
    <path id="Trazado_902038" data-name="Trazado 902038" d="M962.845,217.011h-258.3c-9.921,0-17.964-7.779-17.964-17.374V170.65c0-9.6,8.043-17.374,17.964-17.374h258.3c9.921,0,17.964,7.779,17.964,17.374v28.987c0,9.6-8.043,17.374-17.964,17.374" transform="translate(299.051 6973.684)" fill="#6cb8e9"/>
    <path id="Trazado_902039" data-name="Trazado 902039" d="M472.313,99.138l-.044-.066Z" transform="translate(299.051 6973.684)" fill="#5f5099"/>
    <path id="Trazado_902040" data-name="Trazado 902040" d="M462.349,185.111l.044.066Z" transform="translate(299.051 6973.684)" fill="#5f5099"/>
    <path id="Trazado_902041" data-name="Trazado 902041" d="M472.313,185.177l-.044-.066Z" transform="translate(299.051 6973.684)" fill="#5f5099"/>
    <path id="Trazado_902042" data-name="Trazado 902042" d="M232.055,290.219a1.4,1.4,0,0,1-.288,1.335c-.985,1.353-1.948,2.72-2.931,4.075a.429.429,0,0,0,0,.587c.987,1.363,1.964,2.732,2.944,4.1a1.226,1.226,0,0,1,.041,1.651,1.146,1.146,0,0,1-.909.458q-1.049.02-2.1,0a1.185,1.185,0,0,1-.965-.528q-1.88-2.628-3.745-5.258a1.165,1.165,0,0,1,.016-1.464q.9-1.255,1.793-2.513c.059-.084.144-.158.144-.274.569-.781,1.156-1.551,1.7-2.349a1.315,1.315,0,0,1,1.183-.635c.56.005,1.121.016,1.681,0a1.416,1.416,0,0,1,1.377.7l.019.054.043.066Z" transform="translate(299.051 6973.684)" fill="#fffefe"/>
    <path id="Trazado_902043" data-name="Trazado 902043" d="M232.014,290.152l.044.066Z" transform="translate(299.051 6973.684)" fill="#5f5099"/>
    <path id="Trazado_902044" data-name="Trazado 902044" d="M241.939,301.618a1.4,1.4,0,0,1,.288-1.335c.985-1.353,1.948-2.72,2.931-4.075a.429.429,0,0,0,0-.587q-1.48-2.043-2.944-4.1a1.228,1.228,0,0,1-.041-1.651,1.146,1.146,0,0,1,.909-.458q1.049-.02,2.1,0a1.185,1.185,0,0,1,.965.528q1.882,2.627,3.753,5.259a1.165,1.165,0,0,1-.016,1.464q-.9,1.256-1.793,2.513c-.059.084-.144.158-.144.274-.569.781-1.156,1.551-1.7,2.349a1.315,1.315,0,0,1-1.183.635c-.56-.005-1.121-.016-1.681,0a1.416,1.416,0,0,1-1.377-.7l-.019-.054-.043-.066Z" transform="translate(299.051 6973.684)" fill="#fffefe"/>
    <path id="Trazado_902045" data-name="Trazado 902045" d="M241.979,301.683l-.044-.066Z" transform="translate(299.051 6973.684)" fill="#5f5099"/>
    <path id="Trazado_902046" data-name="Trazado 902046" d="M472.313,301.683l-.044-.066Z" transform="translate(299.051 6973.684)" fill="#5f5099"/>
    <path id="Trazado_902047" data-name="Trazado 902047" d="M975.83,135.023l.044.066c-.015-.022-.03-.044-.044-.066" transform="translate(299.051 6973.684)" fill="#5f5099"/>
    <path id="Trazado_902048" data-name="Trazado 902048" d="M985.79,146.552l-.044-.066Z" transform="translate(299.051 6973.684)" fill="#5f5099"/>
    <g id="Grupo_1103710" data-name="Grupo 1103710" transform="translate(299.051 6973.684)" clip-path="url(#clip-path)">
      <g id="Grupo_1103709" data-name="Grupo 1103709" style="isolation: isolate">
        <g id="Grupo_1103708" data-name="Grupo 1103708">
          <g id="Grupo_1103707" data-name="Grupo 1103707" clip-path="url(#clip-path)">
            <text id="Introducción." transform="translate(65.27 104.95)" fill="#0c1d30" font-size="20" font-family="Roboto-Regular, Roboto"><tspan x="0" y="0">Int</tspan><tspan y="0" letter-spacing="-0.009em">r</tspan><tspan y="0">oducción.</tspan></text>
          </g>
        </g>
      </g>
    </g>
    <g id="Grupo_1103716" data-name="Grupo 1103716" transform="translate(299.051 6973.684)" clip-path="url(#clip-path-3)">
      <g id="Grupo_1103715" data-name="Grupo 1103715" style="isolation: isolate">
        <g id="Grupo_1103714" data-name="Grupo 1103714">
          <g id="Grupo_1103713" data-name="Grupo 1103713" clip-path="url(#clip-path-3)">
            <text id="Conclusión." transform="translate(72.204 190.989)" fill="#0c1d30" font-size="20" font-family="Roboto-Regular, Roboto"><tspan x="0" y="0">Conclusión.</tspan></text>
          </g>
        </g>
      </g>
    </g>
    <g id="Grupo_1103725" data-name="Grupo 1103725" transform="translate(299.051 6973.684)" clip-path="url(#clip-path-5)">
      <g id="Grupo_1103721" data-name="Grupo 1103721" style="isolation: isolate">
        <g id="Grupo_1103720" data-name="Grupo 1103720">
          <g id="Grupo_1103719" data-name="Grupo 1103719" clip-path="url(#clip-path-6)">
            <text id="Con_rmación" data-name="Conﬁrmación" transform="translate(293.507 181.489)" fill="#0c1d30" font-size="20" font-family="Roboto-Regular, Roboto"><tspan x="0" y="0">Conﬁrmación</tspan></text>
          </g>
        </g>
      </g>
      <g id="Grupo_1103724" data-name="Grupo 1103724" style="isolation: isolate">
        <g id="Grupo_1103723" data-name="Grupo 1103723">
          <g id="Grupo_1103722" data-name="Grupo 1103722" clip-path="url(#clip-path-7)">
            <text id="de_la_tesis." data-name="de la tesis." transform="translate(305.47 200.489)" fill="#0c1d30" font-size="20" font-family="Roboto-Regular, Roboto"><tspan x="0" y="0">de la tesis.</tspan></text>
          </g>
        </g>
      </g>
    </g>
    <g id="Grupo_1103734" data-name="Grupo 1103734" transform="translate(299.051 6973.684)" clip-path="url(#clip-path-8)">
      <g id="Grupo_1103730" data-name="Grupo 1103730" style="isolation: isolate">
        <g id="Grupo_1103729" data-name="Grupo 1103729">
          <g id="Grupo_1103728" data-name="Grupo 1103728" clip-path="url(#clip-path-9)">
            <text id="Aportaciones" transform="translate(293.907 291.212)" fill="#0c1d30" font-size="20" font-family="Roboto-Regular, Roboto"><tspan x="0" y="0">Apo</tspan><tspan y="0" letter-spacing="0.009em">r</tspan><tspan y="0">taciones</tspan></text>
          </g>
        </g>
      </g>
      <g id="Grupo_1103733" data-name="Grupo 1103733" style="isolation: isolate">
        <g id="Grupo_1103732" data-name="Grupo 1103732">
          <g id="Grupo_1103731" data-name="Grupo 1103731" clip-path="url(#clip-path-10)">
            <text id="y_sugerencias." data-name="y sugerencias." transform="translate(288.805 310.212)" fill="#0c1d30" font-size="20" font-family="Roboto-Regular, Roboto"><tspan x="0" y="0">y suge</tspan><tspan y="0" letter-spacing="-0.008em">r</tspan><tspan y="0">encias.</tspan></text>
          </g>
        </g>
      </g>
    </g>
    <g id="Grupo_1103746" data-name="Grupo 1103746" transform="translate(299.051 6973.684)" clip-path="url(#clip-path-11)">
      <g id="Grupo_1103739" data-name="Grupo 1103739" style="isolation: isolate">
        <g id="Grupo_1103738" data-name="Grupo 1103738">
          <g id="Grupo_1103737" data-name="Grupo 1103737" clip-path="url(#clip-path-12)">
            <text id="Nuevas_" data-name="Nuevas " transform="translate(539.055 281.712)" fill="#0c1d30" font-size="20" font-family="Roboto-Regular, Roboto"><tspan x="0" y="0">Nu</tspan><tspan y="0" letter-spacing="-0.005em">e</tspan><tspan y="0" letter-spacing="-0.007em">v</tspan><tspan y="0">as </tspan></text>
          </g>
        </g>
      </g>
      <g id="Grupo_1103742" data-name="Grupo 1103742" style="isolation: isolate">
        <g id="Grupo_1103741" data-name="Grupo 1103741">
          <g id="Grupo_1103740" data-name="Grupo 1103740" clip-path="url(#clip-path-13)">
            <text id="propuestas_" data-name="propuestas " transform="translate(521.937 300.712)" fill="#0c1d30" font-size="20" font-family="Roboto-Regular, Roboto"><tspan x="0" y="0">p</tspan><tspan y="0" letter-spacing="-0.009em">r</tspan><tspan y="0">opuestas </tspan></text>
          </g>
        </g>
      </g>
      <g id="Grupo_1103745" data-name="Grupo 1103745" style="isolation: isolate">
        <g id="Grupo_1103744" data-name="Grupo 1103744">
          <g id="Grupo_1103743" data-name="Grupo 1103743" clip-path="url(#clip-path-14)">
            <text id="deducidas." transform="translate(523.508 319.712)" fill="#0c1d30" font-size="20" font-family="Roboto-Regular, Roboto"><tspan x="0" y="0">deducidas.</tspan></text>
          </g>
        </g>
      </g>
    </g>
    <g id="Grupo_1103755" data-name="Grupo 1103755" transform="translate(299.051 6973.684)" clip-path="url(#clip-path-15)">
      <g id="Grupo_1103751" data-name="Grupo 1103751" style="isolation: isolate">
        <g id="Grupo_1103750" data-name="Grupo 1103750">
          <g id="Grupo_1103749" data-name="Grupo 1103749" clip-path="url(#clip-path-16)">
            <text id="Refutación_de" data-name="Refutación de" transform="translate(510.672 181.489)" fill="#0c1d30" font-size="20" font-family="Roboto-Regular, Roboto"><tspan x="0" y="0">Refutación de</tspan></text>
          </g>
        </g>
      </g>
      <g id="Grupo_1103754" data-name="Grupo 1103754" style="isolation: isolate">
        <g id="Grupo_1103753" data-name="Grupo 1103753">
          <g id="Grupo_1103752" data-name="Grupo 1103752" clip-path="url(#clip-path-17)">
            <text id="objeciones." transform="translate(521.185 200.489)" fill="#0c1d30" font-size="20" font-family="Roboto-Regular, Roboto"><tspan x="0" y="0">objeciones.</tspan></text>
          </g>
        </g>
      </g>
    </g>
    <g id="Grupo_1103764" data-name="Grupo 1103764" transform="translate(299.051 6973.684)" clip-path="url(#clip-path-18)">
      <g id="Grupo_1103760" data-name="Grupo 1103760" style="isolation: isolate">
        <g id="Grupo_1103759" data-name="Grupo 1103759">
          <g id="Grupo_1103758" data-name="Grupo 1103758" clip-path="url(#clip-path-19)">
            <text id="Argumentos" transform="translate(778.096 181.489)" fill="#0c1d30" font-size="20" font-family="Roboto-Regular, Roboto"><tspan x="0" y="0">A</tspan><tspan y="0" letter-spacing="-0.008em">r</tspan><tspan y="0">gumentos</tspan></text>
          </g>
        </g>
      </g>
      <g id="Grupo_1103763" data-name="Grupo 1103763" style="isolation: isolate">
        <g id="Grupo_1103762" data-name="Grupo 1103762">
          <g id="Grupo_1103761" data-name="Grupo 1103761" clip-path="url(#clip-path-20)">
            <text id="demostrativos_válidos_" data-name="demostrativos (válidos)" transform="translate(727.192 200.489)" fill="#0c1d30" font-size="20" font-family="Roboto-Regular, Roboto"><tspan x="0" y="0">demostrati</tspan><tspan y="0" letter-spacing="-0.006em">v</tspan><tspan y="0">os (</tspan><tspan y="0" letter-spacing="-0.007em">v</tspan><tspan y="0">álidos)</tspan></text>
          </g>
        </g>
      </g>
    </g>
    <g id="Grupo_1103776" data-name="Grupo 1103776" transform="translate(299.051 6973.684)" clip-path="url(#clip-path-21)">
      <g id="Grupo_1103769" data-name="Grupo 1103769" style="isolation: isolate">
        <g id="Grupo_1103768" data-name="Grupo 1103768">
          <g id="Grupo_1103767" data-name="Grupo 1103767" clip-path="url(#clip-path-22)">
            <text id="Sintesis_de_las_ideas_" data-name="Sintesis de las ideas " transform="translate(42.618 281.127)" fill="#0c1d30" font-size="18" font-family="Roboto-Regular, Roboto"><tspan x="0" y="0">Sintesis de las ideas </tspan></text>
          </g>
        </g>
      </g>
      <g id="Grupo_1103772" data-name="Grupo 1103772" style="isolation: isolate">
        <g id="Grupo_1103771" data-name="Grupo 1103771">
          <g id="Grupo_1103770" data-name="Grupo 1103770" clip-path="url(#clip-path-23)">
            <text id="expuestras" transform="translate(80.411 300.127)" fill="#0c1d30" font-size="18" font-family="Roboto-Regular, Roboto"><tspan x="0" y="0">expuestras</tspan></text>
          </g>
        </g>
      </g>
      <g id="Grupo_1103775" data-name="Grupo 1103775" style="isolation: isolate">
        <g id="Grupo_1103774" data-name="Grupo 1103774">
          <g id="Grupo_1103773" data-name="Grupo 1103773" clip-path="url(#clip-path-24)">
            <text id="y_demostradas." data-name="y demostradas." transform="translate(62.547 319.127)" fill="#0c1d30" font-size="18" font-family="Roboto-Regular, Roboto"><tspan x="0" y="0">y demostradas.</tspan></text>
          </g>
        </g>
      </g>
    </g>
    <g id="Grupo_1103785" data-name="Grupo 1103785" transform="translate(299.051 6973.684)" clip-path="url(#clip-path-25)">
      <g id="Grupo_1103781" data-name="Grupo 1103781" style="isolation: isolate">
        <g id="Grupo_1103780" data-name="Grupo 1103780">
          <g id="Grupo_1103779" data-name="Grupo 1103779" clip-path="url(#clip-path-26)">
            <text id="Planteamiento_de" data-name="Planteamiento de" transform="translate(281.219 94.865)" fill="#0c1d30" font-size="18" font-family="Roboto-Regular, Roboto"><tspan x="0" y="0">Planteamiento de</tspan></text>
          </g>
        </g>
      </g>
      <g id="Grupo_1103784" data-name="Grupo 1103784" style="isolation: isolate">
        <g id="Grupo_1103783" data-name="Grupo 1103783">
          <g id="Grupo_1103782" data-name="Grupo 1103782" clip-path="url(#clip-path-27)">
            <text id="tesis_e_hipótesis." data-name="tesis e hipótesis." transform="translate(284.08 113.865)" fill="#0c1d30" font-size="18" font-family="Roboto-Regular, Roboto"><tspan x="0" y="0">tesis e hipótesis.</tspan></text>
          </g>
        </g>
      </g>
    </g>
    <g id="Grupo_1103794" data-name="Grupo 1103794" transform="translate(299.051 6973.684)" clip-path="url(#clip-path-28)">
      <g id="Grupo_1103790" data-name="Grupo 1103790" style="isolation: isolate">
        <g id="Grupo_1103789" data-name="Grupo 1103789">
          <g id="Grupo_1103788" data-name="Grupo 1103788" clip-path="url(#clip-path-29)">
            <text id="Cuerpo" transform="translate(543.228 94.865)" fill="#0c1d30" font-size="18" font-family="Roboto-Regular, Roboto"><tspan x="0" y="0">Cuerpo</tspan></text>
          </g>
        </g>
      </g>
      <g id="Grupo_1103793" data-name="Grupo 1103793" style="isolation: isolate">
        <g id="Grupo_1103792" data-name="Grupo 1103792">
          <g id="Grupo_1103791" data-name="Grupo 1103791" clip-path="url(#clip-path-30)">
            <text id="argumentativo." transform="translate(510.932 113.865)" fill="#0c1d30" font-size="18" font-family="Roboto-Regular, Roboto"><tspan x="0" y="0">a</tspan><tspan y="0" letter-spacing="-0.009em">r</tspan><tspan y="0">gumentati</tspan><tspan y="0" letter-spacing="-0.006em">v</tspan><tspan y="0">o.</tspan></text>
          </g>
        </g>
      </g>
    </g>
    <g id="Grupo_1103803" data-name="Grupo 1103803" transform="translate(299.051 6973.684)" clip-path="url(#clip-path-31)">
      <g id="Grupo_1103799" data-name="Grupo 1103799" style="isolation: isolate">
        <g id="Grupo_1103798" data-name="Grupo 1103798">
          <g id="Grupo_1103797" data-name="Grupo 1103797" clip-path="url(#clip-path-32)">
            <text id="Exposición_de_las_ideas" data-name="Exposición de las ideas" transform="translate(743.521 94.865)" fill="#0c1d30" font-size="18" font-family="Roboto-Regular, Roboto"><tspan x="0" y="0">Exposición de las ideas</tspan></text>
          </g>
        </g>
      </g>
      <g id="Grupo_1103802" data-name="Grupo 1103802" style="isolation: isolate">
        <g id="Grupo_1103801" data-name="Grupo 1103801">
          <g id="Grupo_1103800" data-name="Grupo 1103800" clip-path="url(#clip-path-33)">
            <text id="y_formulación_de_hipótesis." data-name="y formulación de hipótesis." transform="translate(728.491 113.865)" fill="#0c1d30" font-size="18" font-family="Roboto-Regular, Roboto"><tspan x="0" y="0">y formulación de hipótesis.</tspan></text>
          </g>
        </g>
      </g>
    </g>
    <path id="Trazado_902049" data-name="Trazado 902049" d="M213.707,0h564a23,23,0,0,1,0,46h-564a23,23,0,0,1,0-46" transform="translate(299.051 6973.684)" fill="#3f418e"/>
    <g id="Grupo_1103809" data-name="Grupo 1103809" transform="translate(299.051 6973.684)" clip-path="url(#clip-path-34)">
      <g id="Grupo_1103808" data-name="Grupo 1103808" style="isolation: isolate">
        <g id="Grupo_1103807" data-name="Grupo 1103807">
          <g id="Grupo_1103806" data-name="Grupo 1103806" clip-path="url(#clip-path-34)">
            <text id="Estructura_de_un_texto_argumentativo" data-name="Estructura de un texto argumentativo" transform="translate(287.077 31.5)" fill="#fff" font-size="25" font-family="Roboto-Bold, Roboto" font-weight="700"><tspan x="0" y="0">Estructura de un texto a</tspan><tspan y="0" letter-spacing="-0.006em">r</tspan><tspan y="0">gumentati</tspan><tspan y="0" letter-spacing="-0.005em">v</tspan><tspan y="0">o</tspan></text>
          </g>
        </g>
      </g>
    </g>
    <path id="Trazado_902050" data-name="Trazado 902050" d="M237.853,120.762a21.656,21.656,0,1,1,21.656-21.656,21.681,21.681,0,0,1-21.656,21.656" transform="translate(299.051 6973.684)" fill="#61529a"/>
    <path id="Trazado_902051" data-name="Trazado 902051" d="M237.853,79.949A19.156,19.156,0,1,1,218.7,99.105a19.156,19.156,0,0,1,19.156-19.156m0-5a24.156,24.156,0,1,0,24.156,24.156,24.183,24.183,0,0,0-24.156-24.156" transform="translate(299.051 6973.684)" fill="#fff"/>
    <path id="Trazado_902052" data-name="Trazado 902052" d="M214.875,91.668l.057.085Z" transform="translate(299.051 6973.684)" fill="#5f5099"/>
    <path id="Trazado_902053" data-name="Trazado 902053" d="M218.753,98v-.368c.08-.046.071-.129.074-.2a12.645,12.645,0,0,1,.336-2.248A18.835,18.835,0,0,1,228.985,82.5a15.911,15.911,0,0,1,4-1.548,25.179,25.179,0,0,0,1.9,1.884c1.072,1.073,2.177,2.119,3.271,3.174.305.293.619.574.93.862.091.1.177.206.275.3q1.7,1.653,3.409,3.3c.1.1.241.183.275.342a2.388,2.388,0,0,0-.668-.129c-.824,0-1.647-.007-2.472,0a1.629,1.629,0,0,0-1.265,2.675c1.282,1.779,2.549,3.568,3.841,5.339a.56.56,0,0,1-.011.774c-1.283,1.764-2.54,3.543-3.816,5.312a1.65,1.65,0,0,0-.295,1.659c-.151-.021-.212-.171-.341-.218-.179-.186-.358-.376-.54-.559-.68-.685-1.419-1.317-2.064-2.033,0-.149.107-.245.185-.353q1.153-1.623,2.313-3.242a1.506,1.506,0,0,0,.021-1.888q-2.409-3.4-4.842-6.784a1.524,1.524,0,0,0-1.245-.681c-.9-.014-1.806-.017-2.7,0a1.48,1.48,0,0,0-1.174.591,1.582,1.582,0,0,0,.053,2.129c1.264,1.766,2.524,3.533,3.8,5.289a.553.553,0,0,1,0,.757c-1.268,1.747-2.51,3.511-3.78,5.257a1.805,1.805,0,0,0-.372,1.722c-.15-.031-.224-.155-.321-.248-.872-.838-1.739-1.683-2.612-2.52-.516-.5-1.05-1-1.575-1.49a.534.534,0,0,0-.063-.092q-2.049-1.984-4.1-3.968a.355.355,0,0,0-.258-.138" transform="translate(299.051 6973.684)" fill="#473b8a"/>
    <path id="Trazado_902054" data-name="Trazado 902054" d="M248.2,97.569c.1.155.2.311.306.463a1.581,1.581,0,0,1-.037,2.205q-1.419,1.986-2.825,3.98c-.616.867-1.241,1.729-1.849,2.6a1.514,1.514,0,0,1-1.289.685c-.786.009-1.573-.018-2.357.011a1.716,1.716,0,0,1-1.781-1.047,1.651,1.651,0,0,1,.295-1.659c1.274-1.768,2.533-3.547,3.815-5.311a.559.559,0,0,0,.012-.774c-1.29-1.772-2.559-3.561-3.842-5.34a1.629,1.629,0,0,1,1.266-2.675c.824-.01,1.648,0,2.471,0a2.448,2.448,0,0,1,.668.129,2.245,2.245,0,0,1,.856.762c.184.258.387.516.574.774,1.2,1.765,2.451,3.492,3.722,5.213" transform="translate(299.051 6973.684)" fill="#fffefe"/>
    <path id="Trazado_902055" data-name="Trazado 902055" d="M227.678,106.455a1.805,1.805,0,0,1,.371-1.722c1.271-1.745,2.513-3.509,3.781-5.257a.553.553,0,0,0,0-.757q-1.909-2.637-3.8-5.288a1.582,1.582,0,0,1-.053-2.13,1.479,1.479,0,0,1,1.172-.591q1.353-.024,2.709,0a1.529,1.529,0,0,1,1.245.681q2.429,3.389,4.841,6.784a1.5,1.5,0,0,1-.021,1.888q-1.159,1.62-2.312,3.242c-.077.108-.186.2-.186.353-.734,1.008-1.491,2-2.193,3.03a1.7,1.7,0,0,1-1.526.82c-.722-.007-1.446-.021-2.168,0a1.831,1.831,0,0,1-1.777-.9l-.024-.07-.056-.085Z" transform="translate(299.051 6973.684)" fill="#fffefe"/>
    <path id="Trazado_902056" data-name="Trazado 902056" d="M219.033,102.148a14.693,14.693,0,0,0,.552,2.332,1.711,1.711,0,0,0,.038.214,18.02,18.02,0,0,0,1.677,3.722,10.889,10.889,0,0,0,1.469,2.076,7.236,7.236,0,0,0,1.083,1.31,15.3,15.3,0,0,0,2.594,2.274A13.334,13.334,0,0,0,228.5,115.4c.1.066.206.139.314.2a17.762,17.762,0,0,0,4.257,1.661,8.5,8.5,0,0,0,2.094.418.973.973,0,0,0,.175.059,19.56,19.56,0,0,0,6.236-.065,19.227,19.227,0,0,0,11.751-6.638,18.08,18.08,0,0,0,4.4-12.851,7.294,7.294,0,0,0-.264-2.063,15.338,15.338,0,0,0-1.816-5.5,17.661,17.661,0,0,0-4.215-5.378,13.775,13.775,0,0,0-2.027-1.6,20.843,20.843,0,0,0-8.167-3.184,7.457,7.457,0,0,1-1.385-.213h-3.123c-.08.118-.206.065-.312.078a18.441,18.441,0,0,0-3.426.631,25.007,25.007,0,0,0,1.9,1.883c1.072,1.074,2.177,2.119,3.271,3.174.3.293.619.574.929.862.091.1.176.206.275.3l3.409,3.3c.106.1.242.183.276.342a2.242,2.242,0,0,1,.855.762c.185.258.387.516.574.774,1.2,1.765,2.451,3.491,3.723,5.213.1.153.2.311.306.463a1.579,1.579,0,0,1-.037,2.2c-.945,1.325-1.883,2.655-2.826,3.981-.616.867-1.242,1.729-1.85,2.6a1.5,1.5,0,0,1-1.29.685c-.785.009-1.572-.018-2.356.011a1.72,1.72,0,0,1-1.783-1.046c-.15-.021-.21-.169-.34-.218a.5.5,0,0,0-.129.029.572.572,0,0,0-.117.056.572.572,0,0,1,.117-.056.5.5,0,0,1,.129-.029c-.18-.186-.358-.376-.54-.559-.679-.685-1.419-1.317-2.064-2.033-.733,1.008-1.491,2-2.192,3.03a1.7,1.7,0,0,1-1.526.819c-.723-.006-1.446-.02-2.169,0a1.828,1.828,0,0,1-1.777-.9c-.007-.023-.016-.047-.023-.069a.6.6,0,0,0-.057-.085c-.15-.031-.225-.155-.321-.248-.874-.839-1.739-1.683-2.613-2.521-.515-.5-1.05-.994-1.576-1.491a.471.471,0,0,0-.062-.091q-2.048-1.986-4.1-3.968a.348.348,0,0,0-.258-.138v2.58a5.592,5.592,0,0,1,.28,1.571M255.561,90.63c-.107.023-.159.111-.217.191.057-.081.108-.169.217-.191m-35.908,13.859a.328.328,0,0,0,.168-.057.328.328,0,0,1-.168.057" transform="translate(299.051 6973.684)" fill="#61529a"/>
    <path id="Trazado_902057" data-name="Trazado 902057" d="M227.729,106.538l-.057-.085Z" transform="translate(299.051 6973.684)" fill="#5f5099"/>
    <path id="Trazado_902058" data-name="Trazado 902058" d="M237.853,316.522a21.656,21.656,0,1,1,21.656-21.655,21.681,21.681,0,0,1-21.656,21.655" transform="translate(299.051 6973.684)" fill="#61529a"/>
    <path id="Trazado_902059" data-name="Trazado 902059" d="M237.853,275.711A19.156,19.156,0,1,1,218.7,294.867a19.156,19.156,0,0,1,19.156-19.156m0-5a24.156,24.156,0,1,0,24.156,24.156,24.183,24.183,0,0,0-24.156-24.156" transform="translate(299.051 6973.684)" fill="#fff"/>
    <path id="Trazado_902060" data-name="Trazado 902060" d="M214.875,287.429l.057.085Z" transform="translate(299.051 6973.684)" fill="#5f5099"/>
    <path id="Trazado_902061" data-name="Trazado 902061" d="M218.753,293.758v-.368c.08-.046.071-.129.074-.2a12.644,12.644,0,0,1,.336-2.248,18.835,18.835,0,0,1,9.822-12.684,15.911,15.911,0,0,1,4-1.548,25.174,25.174,0,0,0,1.9,1.884c1.072,1.073,2.177,2.119,3.271,3.174.305.293.619.574.93.862.091.1.177.206.275.3q1.7,1.653,3.409,3.3c.1.1.241.183.275.342a2.39,2.39,0,0,0-.668-.129c-.824,0-1.647-.007-2.472,0a1.629,1.629,0,0,0-1.265,2.675c1.282,1.779,2.549,3.568,3.841,5.339a.56.56,0,0,1-.011.774c-1.283,1.764-2.54,3.543-3.816,5.312a1.65,1.65,0,0,0-.295,1.659c-.151-.021-.212-.171-.341-.218-.179-.186-.358-.376-.54-.559-.68-.685-1.419-1.317-2.064-2.033,0-.149.107-.245.185-.353q1.153-1.623,2.313-3.242a1.506,1.506,0,0,0,.021-1.888q-2.409-3.4-4.842-6.784a1.524,1.524,0,0,0-1.245-.681c-.9-.014-1.806-.017-2.7,0a1.48,1.48,0,0,0-1.174.591,1.582,1.582,0,0,0,.053,2.129c1.264,1.766,2.524,3.533,3.8,5.289a.553.553,0,0,1,0,.757c-1.268,1.747-2.51,3.511-3.78,5.257a1.805,1.805,0,0,0-.372,1.722c-.15-.031-.224-.155-.321-.248-.872-.838-1.739-1.683-2.612-2.521-.516-.5-1.05-.994-1.575-1.489a.535.535,0,0,0-.063-.092q-2.049-1.984-4.1-3.968a.355.355,0,0,0-.258-.138" transform="translate(299.051 6973.684)" fill="#473b8a"/>
    <path id="Trazado_902062" data-name="Trazado 902062" d="M248.2,293.33c.1.155.2.311.306.463a1.581,1.581,0,0,1-.037,2.2q-1.419,1.986-2.825,3.98c-.616.867-1.241,1.729-1.849,2.6a1.514,1.514,0,0,1-1.289.685c-.786.009-1.573-.018-2.357.011a1.716,1.716,0,0,1-1.781-1.047,1.651,1.651,0,0,1,.295-1.659c1.274-1.768,2.533-3.547,3.815-5.311a.559.559,0,0,0,.012-.774c-1.29-1.772-2.559-3.561-3.842-5.34a1.629,1.629,0,0,1,1.266-2.675c.824-.01,1.648,0,2.471,0a2.447,2.447,0,0,1,.668.129,2.245,2.245,0,0,1,.856.762c.184.258.387.516.574.774,1.2,1.765,2.451,3.492,3.722,5.213" transform="translate(299.051 6973.684)" fill="#fffefe"/>
    <path id="Trazado_902063" data-name="Trazado 902063" d="M227.678,302.217a1.805,1.805,0,0,1,.371-1.722c1.271-1.745,2.513-3.509,3.781-5.256a.554.554,0,0,0,0-.758q-1.909-2.637-3.8-5.288a1.582,1.582,0,0,1-.053-2.13,1.479,1.479,0,0,1,1.172-.591q1.353-.024,2.709,0a1.529,1.529,0,0,1,1.245.681q2.429,3.388,4.841,6.784a1.5,1.5,0,0,1-.021,1.888q-1.159,1.62-2.312,3.242c-.077.108-.186.2-.186.353-.734,1.008-1.491,2-2.193,3.03a1.7,1.7,0,0,1-1.526.82c-.722-.007-1.446-.021-2.168,0a1.829,1.829,0,0,1-1.777-.9l-.024-.07-.056-.085Z" transform="translate(299.051 6973.684)" fill="#fffefe"/>
    <path id="Trazado_902064" data-name="Trazado 902064" d="M219.033,297.91a14.693,14.693,0,0,0,.552,2.332,1.711,1.711,0,0,0,.038.214,18.02,18.02,0,0,0,1.677,3.722,10.889,10.889,0,0,0,1.469,2.076,7.236,7.236,0,0,0,1.083,1.31,15.305,15.305,0,0,0,2.594,2.274,13.335,13.335,0,0,0,2.051,1.327c.1.066.206.139.314.2a17.761,17.761,0,0,0,4.257,1.661,8.5,8.5,0,0,0,2.094.418.975.975,0,0,0,.175.059,19.561,19.561,0,0,0,6.236-.065,19.227,19.227,0,0,0,11.751-6.638,18.08,18.08,0,0,0,4.4-12.851,7.294,7.294,0,0,0-.264-2.063,15.338,15.338,0,0,0-1.816-5.5,17.661,17.661,0,0,0-4.215-5.378,13.774,13.774,0,0,0-2.027-1.6,20.843,20.843,0,0,0-8.167-3.184,7.457,7.457,0,0,1-1.385-.213h-3.123c-.08.118-.206.065-.312.078a18.441,18.441,0,0,0-3.426.631,25.01,25.01,0,0,0,1.9,1.883c1.072,1.074,2.177,2.119,3.271,3.174.3.293.619.574.929.862.091.1.176.206.275.3l3.409,3.3c.106.1.242.183.276.342a2.242,2.242,0,0,1,.855.762c.185.258.387.516.574.774,1.2,1.765,2.451,3.491,3.723,5.213.1.153.2.311.306.463a1.579,1.579,0,0,1-.037,2.2c-.945,1.325-1.883,2.655-2.826,3.981-.616.867-1.242,1.729-1.85,2.6a1.505,1.505,0,0,1-1.29.685c-.785.009-1.572-.018-2.356.011a1.72,1.72,0,0,1-1.783-1.046c-.15-.021-.21-.169-.34-.218a.5.5,0,0,0-.129.029.57.57,0,0,0-.117.056.57.57,0,0,1,.117-.056.5.5,0,0,1,.129-.029c-.18-.186-.358-.376-.54-.559-.679-.685-1.419-1.317-2.064-2.033-.733,1.008-1.491,2-2.192,3.03a1.7,1.7,0,0,1-1.526.819c-.723-.006-1.446-.02-2.169,0a1.828,1.828,0,0,1-1.777-.9c-.007-.023-.016-.047-.023-.069a.6.6,0,0,0-.057-.085c-.15-.031-.225-.155-.321-.248-.874-.839-1.739-1.683-2.613-2.521-.515-.5-1.05-.994-1.576-1.491a.472.472,0,0,0-.062-.091q-2.048-1.986-4.1-3.968a.348.348,0,0,0-.258-.138v2.58a5.592,5.592,0,0,1,.28,1.571m36.537-11.518c-.107.023-.159.111-.217.191.057-.081.108-.169.217-.191m-35.908,13.859a.328.328,0,0,0,.168-.057.328.328,0,0,1-.168.057" transform="translate(299.051 6973.684)" fill="#61529a"/>
    <path id="Trazado_902065" data-name="Trazado 902065" d="M227.729,302.3l-.057-.085Z" transform="translate(299.051 6973.684)" fill="#5f5099"/>
    <path id="Trazado_902066" data-name="Trazado 902066" d="M468.055,120.762a21.656,21.656,0,1,1,21.656-21.656,21.681,21.681,0,0,1-21.656,21.656" transform="translate(299.051 6973.684)" fill="#61529a"/>
    <path id="Trazado_902067" data-name="Trazado 902067" d="M468.055,79.949A19.156,19.156,0,1,1,448.9,99.105a19.155,19.155,0,0,1,19.156-19.156m0-5a24.156,24.156,0,1,0,24.156,24.156,24.183,24.183,0,0,0-24.156-24.156" transform="translate(299.051 6973.684)" fill="#fff"/>
    <path id="Trazado_902068" data-name="Trazado 902068" d="M445.077,91.668l.056.085Z" transform="translate(299.051 6973.684)" fill="#5f5099"/>
    <path id="Trazado_902069" data-name="Trazado 902069" d="M448.954,98v-.368c.08-.046.071-.129.074-.2a12.641,12.641,0,0,1,.336-2.248A18.835,18.835,0,0,1,459.186,82.5a15.9,15.9,0,0,1,4-1.548,25.176,25.176,0,0,0,1.9,1.884c1.072,1.073,2.177,2.119,3.271,3.174.3.293.619.574.93.862.09.1.177.206.275.3q1.7,1.653,3.409,3.3c.1.1.241.183.275.342a2.389,2.389,0,0,0-.668-.129c-.824,0-1.647-.007-2.472,0a1.629,1.629,0,0,0-1.265,2.675c1.282,1.779,2.549,3.568,3.841,5.339a.56.56,0,0,1-.011.774c-1.283,1.764-2.54,3.543-3.816,5.312a1.65,1.65,0,0,0-.3,1.659c-.151-.021-.212-.171-.341-.218-.179-.186-.358-.376-.54-.559-.68-.685-1.419-1.317-2.064-2.033,0-.149.107-.245.185-.353q1.154-1.623,2.313-3.242a1.506,1.506,0,0,0,.021-1.888q-2.409-3.4-4.842-6.784a1.524,1.524,0,0,0-1.245-.681c-.9-.014-1.806-.017-2.7,0a1.48,1.48,0,0,0-1.174.591,1.582,1.582,0,0,0,.053,2.129c1.264,1.766,2.524,3.533,3.8,5.289a.553.553,0,0,1,0,.757c-1.268,1.747-2.51,3.511-3.78,5.257a1.805,1.805,0,0,0-.372,1.722c-.15-.031-.224-.155-.321-.248-.872-.838-1.739-1.683-2.612-2.52-.516-.5-1.05-1-1.575-1.49a.535.535,0,0,0-.063-.092q-2.049-1.984-4.1-3.968a.355.355,0,0,0-.258-.138" transform="translate(299.051 6973.684)" fill="#473b8a"/>
    <path id="Trazado_902070" data-name="Trazado 902070" d="M478.4,97.569c.1.155.2.311.306.463a1.58,1.58,0,0,1-.036,2.205q-1.419,1.986-2.825,3.98c-.616.867-1.241,1.729-1.849,2.6a1.514,1.514,0,0,1-1.29.685c-.785.009-1.572-.018-2.356.011a1.718,1.718,0,0,1-1.782-1.047,1.651,1.651,0,0,1,.3-1.659c1.274-1.768,2.533-3.547,3.815-5.311a.559.559,0,0,0,.012-.774c-1.29-1.772-2.559-3.561-3.842-5.34a1.629,1.629,0,0,1,1.266-2.675c.824-.01,1.647,0,2.471,0a2.448,2.448,0,0,1,.668.129,2.245,2.245,0,0,1,.856.762c.184.258.387.516.574.774,1.2,1.765,2.451,3.492,3.722,5.213" transform="translate(299.051 6973.684)" fill="#fffefe"/>
    <path id="Trazado_902071" data-name="Trazado 902071" d="M457.879,106.455a1.805,1.805,0,0,1,.371-1.722c1.271-1.745,2.513-3.509,3.781-5.257a.553.553,0,0,0,0-.757q-1.91-2.637-3.8-5.288a1.582,1.582,0,0,1-.053-2.13,1.479,1.479,0,0,1,1.172-.591q1.353-.024,2.709,0a1.53,1.53,0,0,1,1.245.681q2.428,3.389,4.841,6.784a1.5,1.5,0,0,1-.021,1.888q-1.16,1.62-2.312,3.242c-.077.108-.186.2-.186.353-.734,1.008-1.491,2-2.193,3.03a1.7,1.7,0,0,1-1.526.82c-.722-.007-1.446-.021-2.168,0a1.831,1.831,0,0,1-1.777-.9l-.024-.07-.056-.085Z" transform="translate(299.051 6973.684)" fill="#fffefe"/>
    <path id="Trazado_902072" data-name="Trazado 902072" d="M449.234,102.148a14.693,14.693,0,0,0,.552,2.332,1.711,1.711,0,0,0,.038.214,18.019,18.019,0,0,0,1.677,3.722,10.888,10.888,0,0,0,1.469,2.076,7.236,7.236,0,0,0,1.083,1.31,15.3,15.3,0,0,0,2.594,2.274A13.334,13.334,0,0,0,458.7,115.4c.1.066.206.139.314.2a17.762,17.762,0,0,0,4.257,1.661,8.5,8.5,0,0,0,2.094.418.974.974,0,0,0,.175.059,19.56,19.56,0,0,0,6.236-.065,19.227,19.227,0,0,0,11.751-6.638,18.08,18.08,0,0,0,4.4-12.851,7.293,7.293,0,0,0-.264-2.063,15.338,15.338,0,0,0-1.816-5.5,17.662,17.662,0,0,0-4.215-5.378,13.776,13.776,0,0,0-2.027-1.6,20.843,20.843,0,0,0-8.167-3.184,7.458,7.458,0,0,1-1.385-.213h-3.123c-.08.118-.206.065-.312.078a18.44,18.44,0,0,0-3.426.631,25.007,25.007,0,0,0,1.9,1.883c1.072,1.074,2.177,2.119,3.271,3.174.3.293.619.574.929.862.091.1.176.206.275.3l3.409,3.3c.106.1.242.183.276.342a2.242,2.242,0,0,1,.855.762c.185.258.387.516.574.774,1.2,1.765,2.451,3.491,3.723,5.213.1.153.2.311.306.463a1.579,1.579,0,0,1-.037,2.2c-.945,1.325-1.883,2.655-2.826,3.981-.616.867-1.242,1.729-1.85,2.6a1.5,1.5,0,0,1-1.29.685c-.785.009-1.572-.018-2.356.011a1.72,1.72,0,0,1-1.783-1.046c-.15-.021-.21-.169-.34-.218a.5.5,0,0,0-.129.029.573.573,0,0,0-.117.056.573.573,0,0,1,.117-.056.5.5,0,0,1,.129-.029c-.18-.186-.358-.376-.54-.559-.679-.685-1.419-1.317-2.064-2.033-.733,1.008-1.491,2-2.192,3.03a1.7,1.7,0,0,1-1.526.819c-.723-.006-1.446-.02-2.169,0a1.828,1.828,0,0,1-1.777-.9c-.007-.023-.016-.047-.023-.069a.6.6,0,0,0-.057-.085c-.15-.031-.225-.155-.321-.248-.874-.839-1.739-1.683-2.613-2.521-.515-.5-1.05-.994-1.576-1.491a.431.431,0,0,0-.062-.091q-2.048-1.986-4.1-3.968a.348.348,0,0,0-.258-.138v2.58a5.592,5.592,0,0,1,.28,1.571M485.762,90.63c-.107.023-.159.111-.217.191.057-.081.108-.169.217-.191m-35.908,13.859a.328.328,0,0,0,.168-.057.328.328,0,0,1-.168.057" transform="translate(299.051 6973.684)" fill="#61529a"/>
    <path id="Trazado_902073" data-name="Trazado 902073" d="M457.931,106.538l-.057-.085Z" transform="translate(299.051 6973.684)" fill="#5f5099"/>
    <path id="Trazado_902074" data-name="Trazado 902074" d="M468.055,316.522a21.656,21.656,0,1,1,21.656-21.655,21.681,21.681,0,0,1-21.656,21.655" transform="translate(299.051 6973.684)" fill="#61529a"/>
    <path id="Trazado_902075" data-name="Trazado 902075" d="M468.055,275.711A19.156,19.156,0,1,1,448.9,294.867a19.155,19.155,0,0,1,19.156-19.156m0-5a24.156,24.156,0,1,0,24.156,24.156,24.183,24.183,0,0,0-24.156-24.156" transform="translate(299.051 6973.684)" fill="#fff"/>
    <path id="Trazado_902076" data-name="Trazado 902076" d="M445.077,287.429l.056.085Z" transform="translate(299.051 6973.684)" fill="#5f5099"/>
    <path id="Trazado_902077" data-name="Trazado 902077" d="M448.954,293.758v-.368c.08-.046.071-.129.074-.2a12.64,12.64,0,0,1,.336-2.248,18.835,18.835,0,0,1,9.822-12.684,15.9,15.9,0,0,1,4-1.548,25.172,25.172,0,0,0,1.9,1.884c1.072,1.073,2.177,2.119,3.271,3.174.3.293.619.574.93.862.09.1.177.206.275.3q1.7,1.653,3.409,3.3c.1.1.241.183.275.342a2.39,2.39,0,0,0-.668-.129c-.824,0-1.647-.007-2.472,0a1.629,1.629,0,0,0-1.265,2.675c1.282,1.779,2.549,3.568,3.841,5.339a.56.56,0,0,1-.011.774c-1.283,1.764-2.54,3.543-3.816,5.312a1.65,1.65,0,0,0-.3,1.659c-.151-.021-.212-.171-.341-.218-.179-.186-.358-.376-.54-.559-.68-.685-1.419-1.317-2.064-2.033,0-.149.107-.245.185-.353q1.154-1.623,2.313-3.242a1.506,1.506,0,0,0,.021-1.888q-2.409-3.4-4.842-6.784a1.524,1.524,0,0,0-1.245-.681c-.9-.014-1.806-.017-2.7,0a1.48,1.48,0,0,0-1.174.591,1.582,1.582,0,0,0,.053,2.129c1.264,1.766,2.524,3.533,3.8,5.289a.553.553,0,0,1,0,.757c-1.268,1.747-2.51,3.511-3.78,5.257a1.805,1.805,0,0,0-.372,1.722c-.15-.031-.224-.155-.321-.248-.872-.838-1.739-1.683-2.612-2.521-.516-.5-1.05-.994-1.575-1.489a.537.537,0,0,0-.063-.092q-2.049-1.984-4.1-3.968a.355.355,0,0,0-.258-.138" transform="translate(299.051 6973.684)" fill="#473b8a"/>
    <path id="Trazado_902078" data-name="Trazado 902078" d="M478.4,293.33c.1.155.2.311.306.463a1.58,1.58,0,0,1-.036,2.2q-1.419,1.986-2.825,3.98c-.616.867-1.241,1.729-1.849,2.6a1.514,1.514,0,0,1-1.29.685c-.785.009-1.572-.018-2.356.011a1.718,1.718,0,0,1-1.782-1.047,1.651,1.651,0,0,1,.3-1.659c1.274-1.768,2.533-3.547,3.815-5.311a.559.559,0,0,0,.012-.774c-1.29-1.772-2.559-3.561-3.842-5.34a1.629,1.629,0,0,1,1.266-2.675c.824-.01,1.647,0,2.471,0a2.448,2.448,0,0,1,.668.129,2.245,2.245,0,0,1,.856.762c.184.258.387.516.574.774,1.2,1.765,2.451,3.492,3.722,5.213" transform="translate(299.051 6973.684)" fill="#fffefe"/>
    <path id="Trazado_902079" data-name="Trazado 902079" d="M457.879,302.217a1.805,1.805,0,0,1,.371-1.722c1.271-1.745,2.513-3.509,3.781-5.256a.554.554,0,0,0,0-.758q-1.91-2.637-3.8-5.288a1.582,1.582,0,0,1-.053-2.13,1.479,1.479,0,0,1,1.172-.591q1.353-.024,2.709,0a1.529,1.529,0,0,1,1.245.681q2.428,3.388,4.841,6.784a1.5,1.5,0,0,1-.021,1.888q-1.16,1.62-2.312,3.242c-.077.108-.186.2-.186.353-.734,1.008-1.491,2-2.193,3.03a1.7,1.7,0,0,1-1.526.82c-.722-.007-1.446-.021-2.168,0a1.829,1.829,0,0,1-1.777-.9l-.024-.07-.056-.085Z" transform="translate(299.051 6973.684)" fill="#fffefe"/>
    <path id="Trazado_902080" data-name="Trazado 902080" d="M449.234,297.91a14.693,14.693,0,0,0,.552,2.332,1.711,1.711,0,0,0,.038.214,18.019,18.019,0,0,0,1.677,3.722,10.889,10.889,0,0,0,1.469,2.076,7.237,7.237,0,0,0,1.083,1.31,15.305,15.305,0,0,0,2.594,2.274,13.334,13.334,0,0,0,2.051,1.327c.1.066.206.139.314.2a17.761,17.761,0,0,0,4.257,1.661,8.5,8.5,0,0,0,2.094.418.975.975,0,0,0,.175.059,19.561,19.561,0,0,0,6.236-.065,19.227,19.227,0,0,0,11.751-6.638,18.08,18.08,0,0,0,4.4-12.851,7.293,7.293,0,0,0-.264-2.063,15.338,15.338,0,0,0-1.816-5.5,17.662,17.662,0,0,0-4.215-5.378,13.776,13.776,0,0,0-2.027-1.6,20.843,20.843,0,0,0-8.167-3.184,7.457,7.457,0,0,1-1.385-.213h-3.123c-.08.118-.206.065-.312.078a18.44,18.44,0,0,0-3.426.631,25.01,25.01,0,0,0,1.9,1.883c1.072,1.074,2.177,2.119,3.271,3.174.3.293.619.574.929.862.091.1.176.206.275.3l3.409,3.3c.106.1.242.183.276.342a2.242,2.242,0,0,1,.855.762c.185.258.387.516.574.774,1.2,1.765,2.451,3.491,3.723,5.213.1.153.2.311.306.463a1.579,1.579,0,0,1-.037,2.2c-.945,1.325-1.883,2.655-2.826,3.981-.616.867-1.242,1.729-1.85,2.6a1.505,1.505,0,0,1-1.29.685c-.785.009-1.572-.018-2.356.011a1.72,1.72,0,0,1-1.783-1.046c-.15-.021-.21-.169-.34-.218a.5.5,0,0,0-.129.029.571.571,0,0,0-.117.056.571.571,0,0,1,.117-.056.5.5,0,0,1,.129-.029c-.18-.186-.358-.376-.54-.559-.679-.685-1.419-1.317-2.064-2.033-.733,1.008-1.491,2-2.192,3.03a1.7,1.7,0,0,1-1.526.819c-.723-.006-1.446-.02-2.169,0a1.828,1.828,0,0,1-1.777-.9c-.007-.023-.016-.047-.023-.069a.6.6,0,0,0-.057-.085c-.15-.031-.225-.155-.321-.248-.874-.839-1.739-1.683-2.613-2.521-.515-.5-1.05-.994-1.576-1.491a.431.431,0,0,0-.062-.091q-2.048-1.986-4.1-3.968a.348.348,0,0,0-.258-.138v2.58a5.592,5.592,0,0,1,.28,1.571m36.537-11.518c-.107.023-.159.111-.217.191.057-.081.108-.169.217-.191m-35.908,13.859a.329.329,0,0,0,.168-.057.329.329,0,0,1-.168.057" transform="translate(299.051 6973.684)" fill="#61529a"/>
    <path id="Trazado_902081" data-name="Trazado 902081" d="M457.931,302.3l-.057-.085Z" transform="translate(299.051 6973.684)" fill="#5f5099"/>
    <path id="Trazado_902082" data-name="Trazado 902082" d="M676.89,120.762a21.656,21.656,0,1,1,21.655-21.656,21.681,21.681,0,0,1-21.655,21.656" transform="translate(299.051 6973.684)" fill="#61529a"/>
    <path id="Trazado_902083" data-name="Trazado 902083" d="M676.89,79.949a19.156,19.156,0,1,1-19.156,19.156A19.156,19.156,0,0,1,676.89,79.949m0-5a24.156,24.156,0,1,0,24.156,24.156A24.183,24.183,0,0,0,676.89,74.949" transform="translate(299.051 6973.684)" fill="#fff"/>
    <path id="Trazado_902084" data-name="Trazado 902084" d="M653.912,91.668l.057.085Z" transform="translate(299.051 6973.684)" fill="#5f5099"/>
    <path id="Trazado_902085" data-name="Trazado 902085" d="M657.789,98v-.368c.08-.046.071-.129.074-.2a12.745,12.745,0,0,1,.336-2.248A18.835,18.835,0,0,1,668.021,82.5a15.911,15.911,0,0,1,4-1.548,25.176,25.176,0,0,0,1.9,1.884c1.072,1.073,2.177,2.119,3.271,3.174.3.293.619.574.93.862.091.1.177.206.275.3q1.7,1.653,3.409,3.3c.1.1.241.183.275.342a2.389,2.389,0,0,0-.668-.129c-.824,0-1.647-.007-2.472,0a1.629,1.629,0,0,0-1.265,2.675c1.282,1.779,2.549,3.568,3.841,5.339a.56.56,0,0,1-.011.774c-1.283,1.764-2.54,3.543-3.816,5.312a1.65,1.65,0,0,0-.295,1.659c-.151-.021-.212-.171-.341-.218-.179-.186-.358-.376-.54-.559-.68-.685-1.419-1.317-2.064-2.033,0-.149.107-.245.186-.353q1.152-1.623,2.312-3.242a1.506,1.506,0,0,0,.021-1.888q-2.409-3.4-4.842-6.784a1.524,1.524,0,0,0-1.245-.681c-.9-.014-1.806-.017-2.7,0a1.48,1.48,0,0,0-1.174.591,1.582,1.582,0,0,0,.053,2.129c1.264,1.766,2.524,3.533,3.8,5.289a.553.553,0,0,1,0,.757c-1.268,1.747-2.51,3.511-3.78,5.257a1.805,1.805,0,0,0-.372,1.722c-.15-.031-.224-.155-.321-.248-.872-.838-1.739-1.683-2.612-2.52-.516-.5-1.05-1-1.575-1.49a.535.535,0,0,0-.063-.092q-2.049-1.984-4.1-3.968a.355.355,0,0,0-.258-.138" transform="translate(299.051 6973.684)" fill="#473b8a"/>
    <path id="Trazado_902086" data-name="Trazado 902086" d="M687.233,97.569c.1.155.2.311.306.463a1.58,1.58,0,0,1-.036,2.205q-1.419,1.986-2.825,3.98c-.616.867-1.241,1.729-1.849,2.6a1.514,1.514,0,0,1-1.29.685c-.785.009-1.572-.018-2.356.011a1.718,1.718,0,0,1-1.782-1.047,1.651,1.651,0,0,1,.3-1.659c1.274-1.768,2.533-3.547,3.815-5.311a.56.56,0,0,0,.012-.774c-1.29-1.772-2.559-3.561-3.842-5.34a1.629,1.629,0,0,1,1.266-2.675c.824-.01,1.647,0,2.471,0a2.448,2.448,0,0,1,.668.129,2.244,2.244,0,0,1,.856.762c.184.258.387.516.574.774,1.2,1.765,2.451,3.492,3.722,5.213" transform="translate(299.051 6973.684)" fill="#fffefe"/>
    <path id="Trazado_902087" data-name="Trazado 902087" d="M666.714,106.455a1.8,1.8,0,0,1,.372-1.722c1.27-1.745,2.512-3.509,3.78-5.257a.553.553,0,0,0,0-.757q-1.91-2.637-3.8-5.288a1.582,1.582,0,0,1-.053-2.13,1.479,1.479,0,0,1,1.172-.591q1.353-.024,2.709,0a1.53,1.53,0,0,1,1.245.681q2.428,3.389,4.841,6.784a1.5,1.5,0,0,1-.021,1.888q-1.161,1.62-2.312,3.242c-.077.108-.186.2-.186.353-.734,1.008-1.491,2-2.193,3.03a1.7,1.7,0,0,1-1.526.82c-.722-.007-1.446-.021-2.168,0a1.831,1.831,0,0,1-1.777-.9l-.024-.07-.056-.085Z" transform="translate(299.051 6973.684)" fill="#fffefe"/>
    <path id="Trazado_902088" data-name="Trazado 902088" d="M658.07,102.148a14.693,14.693,0,0,0,.552,2.332,1.716,1.716,0,0,0,.038.214,18.021,18.021,0,0,0,1.677,3.722,10.89,10.89,0,0,0,1.469,2.076,7.237,7.237,0,0,0,1.083,1.31,15.3,15.3,0,0,0,2.594,2.274,13.335,13.335,0,0,0,2.051,1.327c.1.066.206.139.314.2a17.761,17.761,0,0,0,4.257,1.661,8.5,8.5,0,0,0,2.094.418.975.975,0,0,0,.175.059,19.56,19.56,0,0,0,6.236-.065,19.227,19.227,0,0,0,11.751-6.638,18.08,18.08,0,0,0,4.4-12.851,7.3,7.3,0,0,0-.264-2.063,15.338,15.338,0,0,0-1.816-5.5,17.661,17.661,0,0,0-4.215-5.378,13.777,13.777,0,0,0-2.027-1.6,20.843,20.843,0,0,0-8.167-3.184,7.458,7.458,0,0,1-1.385-.213h-3.123c-.08.118-.206.065-.312.078a18.441,18.441,0,0,0-3.426.631,25.006,25.006,0,0,0,1.9,1.883c1.072,1.074,2.177,2.119,3.271,3.174.3.293.619.574.929.862.091.1.176.206.275.3l3.409,3.3c.106.1.242.183.276.342a2.242,2.242,0,0,1,.855.762c.184.258.387.516.574.774,1.2,1.765,2.451,3.491,3.723,5.213.1.153.2.311.306.463a1.579,1.579,0,0,1-.037,2.2c-.945,1.325-1.883,2.655-2.826,3.981-.616.867-1.242,1.729-1.85,2.6a1.505,1.505,0,0,1-1.29.685c-.785.009-1.572-.018-2.356.011a1.72,1.72,0,0,1-1.783-1.046c-.15-.021-.21-.169-.34-.218a.5.5,0,0,0-.129.029.571.571,0,0,0-.117.056.571.571,0,0,1,.117-.056.5.5,0,0,1,.129-.029c-.18-.186-.358-.376-.54-.559-.679-.685-1.419-1.317-2.064-2.033-.734,1.008-1.491,2-2.192,3.03a1.7,1.7,0,0,1-1.526.819c-.723-.006-1.446-.02-2.169,0a1.828,1.828,0,0,1-1.777-.9c-.007-.023-.016-.047-.023-.069a.6.6,0,0,0-.057-.085c-.15-.031-.225-.155-.321-.248-.874-.839-1.739-1.683-2.613-2.521-.515-.5-1.05-.994-1.576-1.491a.429.429,0,0,0-.062-.091q-2.047-1.986-4.1-3.968a.348.348,0,0,0-.258-.138v2.58a5.591,5.591,0,0,1,.28,1.571M694.6,90.63c-.107.023-.159.111-.217.191.057-.081.108-.169.217-.191M658.69,104.489a.328.328,0,0,0,.168-.057.328.328,0,0,1-.168.057" transform="translate(299.051 6973.684)" fill="#61529a"/>
    <path id="Trazado_902089" data-name="Trazado 902089" d="M666.766,106.538l-.057-.085Z" transform="translate(299.051 6973.684)" fill="#5f5099"/>
    <path id="Trazado_902090" data-name="Trazado 902090" d="M673.807,206.8a21.656,21.656,0,1,1,21.655-21.655A21.681,21.681,0,0,1,673.807,206.8" transform="translate(299.051 6973.684)" fill="#61529a"/>
    <path id="Trazado_902091" data-name="Trazado 902091" d="M673.807,165.988a19.156,19.156,0,1,1-19.156,19.156,19.155,19.155,0,0,1,19.156-19.156m0-5a24.156,24.156,0,1,0,24.156,24.156,24.183,24.183,0,0,0-24.156-24.156" transform="translate(299.051 6973.684)" fill="#fff"/>
    <path id="Trazado_902092" data-name="Trazado 902092" d="M696.786,192.582l-.057-.085Z" transform="translate(299.051 6973.684)" fill="#5f5099"/>
    <path id="Trazado_902093" data-name="Trazado 902093" d="M692.908,186.252v.368c-.08.046-.071.129-.074.2a12.643,12.643,0,0,1-.336,2.248,18.835,18.835,0,0,1-9.822,12.684,15.9,15.9,0,0,1-4,1.548,25.182,25.182,0,0,0-1.9-1.884c-1.072-1.073-2.177-2.119-3.271-3.174-.3-.293-.619-.574-.93-.862-.09-.1-.177-.206-.275-.3q-1.7-1.653-3.409-3.3c-.105-.1-.241-.183-.275-.342a2.388,2.388,0,0,0,.668.129c.824,0,1.647.007,2.472,0a1.629,1.629,0,0,0,1.265-2.675c-1.282-1.779-2.549-3.568-3.841-5.339a.56.56,0,0,1,.011-.774c1.283-1.764,2.54-3.543,3.816-5.312a1.65,1.65,0,0,0,.3-1.659c.151.021.212.171.341.218.179.186.358.376.54.559.68.685,1.419,1.317,2.064,2.033,0,.149-.107.245-.185.353q-1.153,1.623-2.313,3.242a1.506,1.506,0,0,0-.021,1.888q2.409,3.4,4.842,6.784a1.524,1.524,0,0,0,1.245.681c.9.014,1.806.017,2.7,0a1.48,1.48,0,0,0,1.174-.591,1.582,1.582,0,0,0-.053-2.129c-1.264-1.766-2.524-3.533-3.8-5.289a.553.553,0,0,1,0-.757c1.268-1.747,2.51-3.511,3.78-5.257a1.805,1.805,0,0,0,.372-1.722c.15.031.224.155.321.248.872.838,1.739,1.683,2.612,2.52.516.5,1.05,1,1.575,1.49a.532.532,0,0,0,.063.092q2.049,1.984,4.1,3.968a.355.355,0,0,0,.258.138" transform="translate(299.051 6973.684)" fill="#473b8a"/>
    <path id="Trazado_902094" data-name="Trazado 902094" d="M663.464,186.68c-.1-.155-.2-.311-.306-.463a1.58,1.58,0,0,1,.036-2.205q1.419-1.986,2.825-3.98c.616-.867,1.241-1.729,1.849-2.6a1.514,1.514,0,0,1,1.29-.685c.785-.009,1.572.018,2.356-.011a1.719,1.719,0,0,1,1.782,1.047,1.651,1.651,0,0,1-.3,1.659c-1.274,1.768-2.533,3.547-3.815,5.311a.559.559,0,0,0-.012.774c1.29,1.772,2.559,3.561,3.842,5.34a1.629,1.629,0,0,1-1.266,2.675c-.824.01-1.647,0-2.471,0a2.448,2.448,0,0,1-.668-.129,2.245,2.245,0,0,1-.856-.762c-.184-.258-.387-.516-.574-.774-1.2-1.765-2.451-3.492-3.722-5.213" transform="translate(299.051 6973.684)" fill="#fffefe"/>
    <path id="Trazado_902095" data-name="Trazado 902095" d="M683.983,177.794a1.805,1.805,0,0,1-.371,1.722c-1.271,1.745-2.513,3.509-3.781,5.257a.553.553,0,0,0,0,.757q1.91,2.637,3.8,5.288a1.582,1.582,0,0,1,.053,2.13,1.479,1.479,0,0,1-1.172.591q-1.353.024-2.709,0a1.529,1.529,0,0,1-1.245-.681q-2.429-3.387-4.841-6.784a1.5,1.5,0,0,1,.021-1.888q1.161-1.62,2.312-3.242c.077-.108.186-.2.186-.353.734-1.008,1.491-2,2.193-3.03a1.7,1.7,0,0,1,1.526-.82c.722.007,1.446.021,2.168,0a1.831,1.831,0,0,1,1.777.9l.024.07.056.085Z" transform="translate(299.051 6973.684)" fill="#fffefe"/>
    <path id="Trazado_902096" data-name="Trazado 902096" d="M692.628,182.1a14.693,14.693,0,0,0-.552-2.332,1.717,1.717,0,0,0-.038-.214,18.021,18.021,0,0,0-1.677-3.722,10.893,10.893,0,0,0-1.469-2.076,7.24,7.24,0,0,0-1.083-1.31,15.3,15.3,0,0,0-2.594-2.274,13.337,13.337,0,0,0-2.051-1.327c-.1-.066-.206-.139-.315-.2a17.738,17.738,0,0,0-4.256-1.661,8.505,8.505,0,0,0-2.094-.418.975.975,0,0,0-.175-.059,19.56,19.56,0,0,0-6.236.065,19.227,19.227,0,0,0-11.751,6.638,18.08,18.08,0,0,0-4.4,12.851,7.3,7.3,0,0,0,.264,2.063,15.338,15.338,0,0,0,1.816,5.5A17.661,17.661,0,0,0,660.235,199a13.777,13.777,0,0,0,2.027,1.6,20.843,20.843,0,0,0,8.167,3.184,7.458,7.458,0,0,1,1.385.213h3.123c.08-.118.206-.065.312-.078a18.441,18.441,0,0,0,3.426-.631,25.006,25.006,0,0,0-1.9-1.883c-1.072-1.074-2.177-2.119-3.271-3.174-.3-.293-.619-.574-.929-.862-.091-.1-.176-.206-.275-.3l-3.409-3.3c-.106-.1-.242-.183-.276-.342a2.242,2.242,0,0,1-.855-.762c-.185-.258-.387-.516-.574-.774-1.2-1.765-2.451-3.491-3.723-5.213-.1-.153-.2-.311-.306-.463a1.579,1.579,0,0,1,.037-2.2c.945-1.325,1.883-2.655,2.826-3.981.616-.867,1.242-1.729,1.85-2.6a1.5,1.5,0,0,1,1.289-.685c.786-.009,1.573.018,2.357-.011a1.72,1.72,0,0,1,1.783,1.046c.149.021.21.169.34.218a.5.5,0,0,0,.129-.029.571.571,0,0,0,.117-.056.571.571,0,0,1-.117.056.5.5,0,0,1-.129.029c.18.186.358.376.54.559.679.685,1.419,1.317,2.063,2.033.734-1.008,1.492-2,2.193-3.03a1.7,1.7,0,0,1,1.526-.819c.723.006,1.446.02,2.169,0a1.827,1.827,0,0,1,1.777.9c.007.023.016.047.023.069a.6.6,0,0,0,.057.085c.15.031.225.155.321.248.874.839,1.739,1.683,2.612,2.521.516.5,1.05.994,1.577,1.491a.428.428,0,0,0,.062.091q2.047,1.986,4.1,3.968a.348.348,0,0,0,.258.138v-2.58a5.593,5.593,0,0,1-.28-1.571M656.1,193.619c.107-.023.159-.111.217-.191-.057.081-.108.169-.217.191m35.908-13.859a.328.328,0,0,0-.168.057.328.328,0,0,1,.168-.057" transform="translate(299.051 6973.684)" fill="#61529a"/>
    <path id="Trazado_902097" data-name="Trazado 902097" d="M683.931,177.711l.057.085Z" transform="translate(299.051 6973.684)" fill="#5f5099"/>
    <path id="Trazado_902098" data-name="Trazado 902098" d="M464.972,206.8a21.656,21.656,0,1,1,21.656-21.655A21.681,21.681,0,0,1,464.972,206.8" transform="translate(299.051 6973.684)" fill="#61529a"/>
    <path id="Trazado_902099" data-name="Trazado 902099" d="M464.972,165.988a19.156,19.156,0,1,1-19.156,19.156,19.156,19.156,0,0,1,19.156-19.156m0-5a24.156,24.156,0,1,0,24.156,24.156,24.183,24.183,0,0,0-24.156-24.156" transform="translate(299.051 6973.684)" fill="#fff"/>
    <path id="Trazado_902100" data-name="Trazado 902100" d="M487.95,192.582l-.057-.085Z" transform="translate(299.051 6973.684)" fill="#5f5099"/>
    <path id="Trazado_902101" data-name="Trazado 902101" d="M484.073,186.252v.368c-.08.046-.071.129-.074.2a12.643,12.643,0,0,1-.336,2.248,18.835,18.835,0,0,1-9.822,12.684,15.911,15.911,0,0,1-4,1.548,25.177,25.177,0,0,0-1.9-1.884c-1.072-1.073-2.177-2.119-3.271-3.174-.305-.293-.619-.574-.93-.862-.091-.1-.177-.206-.275-.3q-1.7-1.653-3.409-3.3c-.105-.1-.241-.183-.275-.342a2.388,2.388,0,0,0,.668.129c.824,0,1.647.007,2.472,0a1.629,1.629,0,0,0,1.265-2.675c-1.282-1.779-2.549-3.568-3.841-5.339a.56.56,0,0,1,.011-.774c1.283-1.764,2.54-3.543,3.816-5.312a1.65,1.65,0,0,0,.3-1.659c.151.021.212.171.341.218.179.186.358.376.54.559.68.685,1.419,1.317,2.064,2.033,0,.149-.107.245-.185.353q-1.153,1.623-2.313,3.242a1.506,1.506,0,0,0-.021,1.888q2.409,3.4,4.842,6.784a1.524,1.524,0,0,0,1.245.681c.9.014,1.806.017,2.7,0a1.48,1.48,0,0,0,1.174-.591,1.582,1.582,0,0,0-.053-2.129c-1.264-1.766-2.524-3.533-3.8-5.289a.553.553,0,0,1,0-.757c1.268-1.747,2.51-3.511,3.78-5.257a1.805,1.805,0,0,0,.372-1.722c.15.031.224.155.321.248.872.838,1.739,1.683,2.612,2.52.516.5,1.05,1,1.575,1.49a.535.535,0,0,0,.063.092q2.049,1.984,4.1,3.968a.355.355,0,0,0,.258.138" transform="translate(299.051 6973.684)" fill="#473b8a"/>
    <path id="Trazado_902102" data-name="Trazado 902102" d="M454.629,186.68c-.1-.155-.2-.311-.306-.463a1.58,1.58,0,0,1,.036-2.205q1.419-1.986,2.825-3.98c.616-.867,1.241-1.729,1.849-2.6a1.514,1.514,0,0,1,1.29-.685c.785-.009,1.572.018,2.356-.011a1.719,1.719,0,0,1,1.782,1.047,1.651,1.651,0,0,1-.3,1.659c-1.274,1.768-2.533,3.547-3.815,5.311a.559.559,0,0,0-.012.774c1.29,1.772,2.559,3.561,3.842,5.34a1.629,1.629,0,0,1-1.266,2.675c-.824.01-1.647,0-2.471,0a2.448,2.448,0,0,1-.668-.129,2.245,2.245,0,0,1-.856-.762c-.184-.258-.387-.516-.574-.774-1.2-1.765-2.451-3.492-3.722-5.213" transform="translate(299.051 6973.684)" fill="#fffefe"/>
    <path id="Trazado_902103" data-name="Trazado 902103" d="M475.148,177.794a1.805,1.805,0,0,1-.371,1.722c-1.271,1.745-2.513,3.509-3.781,5.257a.553.553,0,0,0,0,.757q1.91,2.637,3.8,5.288a1.582,1.582,0,0,1,.053,2.13,1.479,1.479,0,0,1-1.172.591q-1.353.024-2.709,0a1.529,1.529,0,0,1-1.245-.681q-2.428-3.387-4.841-6.784a1.5,1.5,0,0,1,.021-1.888q1.161-1.62,2.312-3.242c.077-.108.186-.2.186-.353.734-1.008,1.491-2,2.193-3.03a1.7,1.7,0,0,1,1.526-.82c.722.007,1.446.021,2.168,0a1.831,1.831,0,0,1,1.777.9l.024.07.056.085Z" transform="translate(299.051 6973.684)" fill="#fffefe"/>
    <path id="Trazado_902104" data-name="Trazado 902104" d="M483.792,182.1a14.693,14.693,0,0,0-.552-2.332,1.711,1.711,0,0,0-.038-.214,18.02,18.02,0,0,0-1.677-3.722,10.889,10.889,0,0,0-1.469-2.076,7.236,7.236,0,0,0-1.083-1.31,15.3,15.3,0,0,0-2.594-2.274,13.335,13.335,0,0,0-2.051-1.327c-.1-.066-.206-.139-.314-.2a17.762,17.762,0,0,0-4.257-1.661,8.5,8.5,0,0,0-2.094-.418.974.974,0,0,0-.175-.059,19.56,19.56,0,0,0-6.236.065,19.227,19.227,0,0,0-11.751,6.638,18.08,18.08,0,0,0-4.4,12.851,7.293,7.293,0,0,0,.264,2.063,15.337,15.337,0,0,0,1.816,5.5A17.662,17.662,0,0,0,451.4,199a13.777,13.777,0,0,0,2.027,1.6,20.843,20.843,0,0,0,8.167,3.184,7.457,7.457,0,0,1,1.385.213H466.1c.08-.118.206-.065.312-.078a18.441,18.441,0,0,0,3.426-.631,25.007,25.007,0,0,0-1.9-1.883c-1.072-1.074-2.177-2.119-3.271-3.174-.3-.293-.619-.574-.929-.862-.091-.1-.176-.206-.275-.3l-3.409-3.3c-.106-.1-.242-.183-.276-.342a2.242,2.242,0,0,1-.855-.762c-.185-.258-.387-.516-.574-.774-1.2-1.765-2.451-3.491-3.723-5.213-.1-.153-.2-.311-.306-.463a1.579,1.579,0,0,1,.037-2.2c.945-1.325,1.883-2.655,2.826-3.981.616-.867,1.242-1.729,1.85-2.6a1.5,1.5,0,0,1,1.29-.685c.785-.009,1.572.018,2.356-.011a1.72,1.72,0,0,1,1.783,1.046c.15.021.21.169.34.218a.5.5,0,0,0,.129-.029.573.573,0,0,0,.117-.056.573.573,0,0,1-.117.056.5.5,0,0,1-.129.029c.18.186.358.376.54.559.679.685,1.419,1.317,2.063,2.033.734-1.008,1.492-2,2.193-3.03a1.7,1.7,0,0,1,1.526-.819c.723.006,1.446.02,2.169,0a1.828,1.828,0,0,1,1.777.9c.007.023.016.047.023.069a.6.6,0,0,0,.057.085c.15.031.225.155.321.248.874.839,1.739,1.683,2.613,2.521.515.5,1.049.994,1.576,1.491a.43.43,0,0,0,.062.091q2.048,1.986,4.1,3.968a.348.348,0,0,0,.258.138v-2.58a5.592,5.592,0,0,1-.28-1.571m-36.537,11.518c.107-.023.159-.111.217-.191-.057.081-.108.169-.217.191m35.908-13.859a.328.328,0,0,0-.168.057.328.328,0,0,1,.168-.057" transform="translate(299.051 6973.684)" fill="#61529a"/>
    <path id="Trazado_902105" data-name="Trazado 902105" d="M475.1,177.711l.057.085Z" transform="translate(299.051 6973.684)" fill="#5f5099"/>
    <path id="Trazado_902106" data-name="Trazado 902106" d="M234.771,206.8a21.656,21.656,0,1,1,21.656-21.655A21.681,21.681,0,0,1,234.771,206.8" transform="translate(299.051 6973.684)" fill="#61529a"/>
    <path id="Trazado_902107" data-name="Trazado 902107" d="M234.771,165.988a19.156,19.156,0,1,1-19.156,19.156,19.155,19.155,0,0,1,19.156-19.156m0-5a24.156,24.156,0,1,0,24.156,24.156,24.183,24.183,0,0,0-24.156-24.156" transform="translate(299.051 6973.684)" fill="#fff"/>
    <path id="Trazado_902108" data-name="Trazado 902108" d="M257.749,192.582l-.057-.085Z" transform="translate(299.051 6973.684)" fill="#5f5099"/>
    <path id="Trazado_902109" data-name="Trazado 902109" d="M253.871,186.252v.368c-.08.046-.071.129-.074.2a12.643,12.643,0,0,1-.336,2.248,18.835,18.835,0,0,1-9.822,12.684,15.911,15.911,0,0,1-4,1.548,25.175,25.175,0,0,0-1.9-1.884c-1.072-1.073-2.177-2.119-3.271-3.174-.3-.293-.619-.574-.93-.862-.091-.1-.177-.206-.275-.3q-1.7-1.653-3.409-3.3c-.1-.1-.241-.183-.275-.342a2.388,2.388,0,0,0,.668.129c.824,0,1.647.007,2.472,0a1.629,1.629,0,0,0,1.265-2.675c-1.282-1.779-2.549-3.568-3.841-5.339a.56.56,0,0,1,.011-.774c1.283-1.764,2.54-3.543,3.816-5.312a1.65,1.65,0,0,0,.295-1.659c.151.021.212.171.341.218.179.186.358.376.54.559.68.685,1.419,1.317,2.064,2.033,0,.149-.107.245-.185.353q-1.154,1.623-2.313,3.242a1.506,1.506,0,0,0-.021,1.888q2.409,3.4,4.842,6.784a1.524,1.524,0,0,0,1.245.681c.9.014,1.806.017,2.7,0a1.48,1.48,0,0,0,1.174-.591,1.582,1.582,0,0,0-.053-2.129c-1.264-1.766-2.524-3.533-3.8-5.289a.553.553,0,0,1,0-.757c1.268-1.747,2.51-3.511,3.78-5.257a1.805,1.805,0,0,0,.372-1.722c.15.031.224.155.321.248.872.838,1.739,1.683,2.612,2.52.516.5,1.05,1,1.575,1.49a.534.534,0,0,0,.063.092q2.049,1.984,4.1,3.968a.355.355,0,0,0,.258.138" transform="translate(299.051 6973.684)" fill="#473b8a"/>
    <path id="Trazado_902110" data-name="Trazado 902110" d="M224.428,186.68c-.1-.155-.2-.311-.306-.463a1.58,1.58,0,0,1,.036-2.205q1.419-1.986,2.825-3.98c.616-.867,1.241-1.729,1.849-2.6a1.514,1.514,0,0,1,1.29-.685c.785-.009,1.572.018,2.356-.011a1.718,1.718,0,0,1,1.782,1.047,1.651,1.651,0,0,1-.3,1.659c-1.274,1.768-2.533,3.547-3.815,5.311a.56.56,0,0,0-.012.774c1.29,1.772,2.559,3.561,3.842,5.34a1.629,1.629,0,0,1-1.266,2.675c-.824.01-1.647,0-2.471,0a2.448,2.448,0,0,1-.668-.129,2.245,2.245,0,0,1-.856-.762c-.184-.258-.387-.516-.574-.774-1.2-1.765-2.451-3.492-3.722-5.213" transform="translate(299.051 6973.684)" fill="#fffefe"/>
    <path id="Trazado_902111" data-name="Trazado 902111" d="M244.946,177.794a1.805,1.805,0,0,1-.371,1.722c-1.271,1.745-2.513,3.509-3.781,5.257a.553.553,0,0,0,0,.757q1.909,2.637,3.8,5.288a1.582,1.582,0,0,1,.053,2.13,1.479,1.479,0,0,1-1.172.591q-1.353.024-2.709,0a1.529,1.529,0,0,1-1.245-.681q-2.429-3.387-4.841-6.784a1.5,1.5,0,0,1,.021-1.888q1.161-1.62,2.312-3.242c.077-.108.186-.2.186-.353.734-1.008,1.491-2,2.193-3.03a1.7,1.7,0,0,1,1.526-.82c.722.007,1.446.021,2.168,0a1.831,1.831,0,0,1,1.777.9l.024.07.056.085Z" transform="translate(299.051 6973.684)" fill="#fffefe"/>
    <path id="Trazado_902112" data-name="Trazado 902112" d="M253.591,182.1a14.587,14.587,0,0,0-.552-2.332,1.711,1.711,0,0,0-.038-.214,18.02,18.02,0,0,0-1.677-3.722,10.889,10.889,0,0,0-1.469-2.076,7.236,7.236,0,0,0-1.083-1.31,15.3,15.3,0,0,0-2.594-2.274,13.335,13.335,0,0,0-2.051-1.327c-.1-.066-.206-.139-.314-.2a17.762,17.762,0,0,0-4.257-1.661,8.5,8.5,0,0,0-2.094-.418.974.974,0,0,0-.175-.059,19.56,19.56,0,0,0-6.236.065,19.227,19.227,0,0,0-11.751,6.638,18.08,18.08,0,0,0-4.4,12.851,7.293,7.293,0,0,0,.264,2.063,15.337,15.337,0,0,0,1.816,5.5A17.661,17.661,0,0,0,221.2,199a13.776,13.776,0,0,0,2.027,1.6,20.843,20.843,0,0,0,8.167,3.184,7.457,7.457,0,0,1,1.385.213H235.9c.08-.118.206-.065.312-.078a18.442,18.442,0,0,0,3.426-.631,25.007,25.007,0,0,0-1.9-1.883c-1.072-1.074-2.177-2.119-3.271-3.174-.3-.293-.619-.574-.929-.862-.091-.1-.176-.206-.275-.3l-3.409-3.3c-.106-.1-.242-.183-.276-.342a2.242,2.242,0,0,1-.855-.762c-.185-.258-.387-.516-.574-.774-1.2-1.765-2.451-3.491-3.723-5.213-.1-.153-.2-.311-.306-.463a1.579,1.579,0,0,1,.037-2.2c.945-1.325,1.883-2.655,2.826-3.981.616-.867,1.242-1.729,1.85-2.6a1.5,1.5,0,0,1,1.29-.685c.785-.009,1.572.018,2.356-.011a1.72,1.72,0,0,1,1.783,1.046c.15.021.21.169.34.218a.5.5,0,0,0,.129-.029.572.572,0,0,0,.117-.056.572.572,0,0,1-.117.056.5.5,0,0,1-.129.029c.18.186.358.376.54.559.679.685,1.419,1.317,2.064,2.033.733-1.008,1.491-2,2.192-3.03a1.7,1.7,0,0,1,1.526-.819c.723.006,1.446.02,2.169,0a1.828,1.828,0,0,1,1.777.9c.007.023.016.047.023.069a.6.6,0,0,0,.057.085c.15.031.225.155.321.248.874.839,1.739,1.683,2.613,2.521.515.5,1.05.994,1.576,1.491a.471.471,0,0,0,.062.091q2.047,1.986,4.1,3.968a.348.348,0,0,0,.258.138v-2.58a5.591,5.591,0,0,1-.28-1.571m-36.537,11.518c.107-.023.159-.111.217-.191-.057.081-.108.169-.217.191m35.908-13.859a.328.328,0,0,0-.168.057.328.328,0,0,1,.168-.057" transform="translate(299.051 6973.684)" fill="#61529a"/>
    <path id="Trazado_902113" data-name="Trazado 902113" d="M244.9,177.711l.057.085Z" transform="translate(299.051 6973.684)" fill="#5f5099"/>
    <path id="Trazado_902114" data-name="Trazado 902114" d="M24.156,251.449a21.656,21.656,0,1,1,21.656-21.656,21.681,21.681,0,0,1-21.656,21.656" transform="translate(299.051 6973.684)" fill="#61529a"/>
    <path id="Trazado_902115" data-name="Trazado 902115" d="M24.156,210.637A19.156,19.156,0,1,1,5,229.793a19.155,19.155,0,0,1,19.156-19.156m0-5a24.156,24.156,0,1,0,24.156,24.156,24.183,24.183,0,0,0-24.156-24.156" transform="translate(299.051 6973.684)" fill="#fff"/>
    <path id="Trazado_902116" data-name="Trazado 902116" d="M1.178,222.355l.057.085Z" transform="translate(299.051 6973.684)" fill="#5f5099"/>
    <path id="Trazado_902117" data-name="Trazado 902117" d="M5.055,228.685v-.368c.08-.046.071-.129.074-.2a12.644,12.644,0,0,1,.336-2.248,18.835,18.835,0,0,1,9.822-12.684,15.91,15.91,0,0,1,4-1.548,25.177,25.177,0,0,0,1.9,1.884c1.072,1.073,2.177,2.119,3.271,3.174.305.293.619.574.93.862.091.1.177.206.275.3q1.7,1.653,3.409,3.3c.1.1.241.183.275.342a2.389,2.389,0,0,0-.668-.129c-.824,0-1.647-.007-2.472,0a1.629,1.629,0,0,0-1.265,2.675c1.282,1.779,2.549,3.568,3.841,5.339a.56.56,0,0,1-.011.774c-1.283,1.764-2.54,3.543-3.816,5.312a1.65,1.65,0,0,0-.3,1.659c-.151-.021-.212-.171-.341-.218-.179-.186-.358-.376-.54-.559-.68-.685-1.419-1.317-2.064-2.033,0-.149.107-.245.185-.353q1.154-1.623,2.313-3.242a1.506,1.506,0,0,0,.021-1.888q-2.409-3.4-4.842-6.784a1.524,1.524,0,0,0-1.245-.681c-.9-.014-1.806-.017-2.7,0a1.48,1.48,0,0,0-1.174.591,1.582,1.582,0,0,0,.053,2.129c1.264,1.766,2.524,3.533,3.8,5.289a.553.553,0,0,1,0,.757c-1.268,1.747-2.51,3.511-3.78,5.257a1.805,1.805,0,0,0-.372,1.722c-.15-.031-.224-.155-.321-.248-.872-.838-1.739-1.683-2.612-2.521-.516-.5-1.05-.994-1.575-1.489a.534.534,0,0,0-.063-.092q-2.049-1.984-4.1-3.968a.355.355,0,0,0-.258-.138" transform="translate(299.051 6973.684)" fill="#473b8a"/>
    <path id="Trazado_902118" data-name="Trazado 902118" d="M34.5,228.256c.1.155.2.311.306.463a1.58,1.58,0,0,1-.036,2.205q-1.419,1.986-2.825,3.98c-.616.867-1.241,1.729-1.849,2.6a1.514,1.514,0,0,1-1.29.685c-.785.009-1.572-.018-2.356.011a1.719,1.719,0,0,1-1.782-1.047,1.651,1.651,0,0,1,.3-1.659c1.274-1.768,2.533-3.547,3.815-5.311a.559.559,0,0,0,.012-.774c-1.29-1.772-2.559-3.561-3.842-5.34a1.629,1.629,0,0,1,1.266-2.675c.824-.01,1.647,0,2.471,0a2.447,2.447,0,0,1,.668.129,2.245,2.245,0,0,1,.856.762c.184.258.387.516.574.774,1.2,1.765,2.451,3.492,3.722,5.213" transform="translate(299.051 6973.684)" fill="#fffefe"/>
    <path id="Trazado_902119" data-name="Trazado 902119" d="M13.98,237.143a1.805,1.805,0,0,1,.371-1.722c1.271-1.745,2.513-3.509,3.781-5.256a.554.554,0,0,0,0-.758q-1.91-2.637-3.8-5.288a1.582,1.582,0,0,1-.053-2.13,1.479,1.479,0,0,1,1.172-.591q1.353-.024,2.709,0a1.529,1.529,0,0,1,1.245.681q2.428,3.389,4.841,6.784a1.5,1.5,0,0,1-.021,1.888q-1.16,1.62-2.312,3.242c-.077.108-.186.2-.186.353-.734,1.008-1.491,2-2.193,3.03a1.7,1.7,0,0,1-1.526.82c-.722-.007-1.446-.021-2.168,0a1.829,1.829,0,0,1-1.777-.9l-.024-.07-.056-.085Z" transform="translate(299.051 6973.684)" fill="#fffefe"/>
    <path id="Trazado_902120" data-name="Trazado 902120" d="M5.336,232.836a14.694,14.694,0,0,0,.552,2.332,1.711,1.711,0,0,0,.038.214A18.02,18.02,0,0,0,7.6,239.1a10.889,10.889,0,0,0,1.469,2.076,7.236,7.236,0,0,0,1.083,1.31,15.3,15.3,0,0,0,2.594,2.274,13.334,13.334,0,0,0,2.051,1.327c.1.066.206.139.314.2a17.762,17.762,0,0,0,4.257,1.661,8.5,8.5,0,0,0,2.094.418.974.974,0,0,0,.175.059,19.56,19.56,0,0,0,6.236-.065,19.227,19.227,0,0,0,11.751-6.638,18.08,18.08,0,0,0,4.4-12.851,7.293,7.293,0,0,0-.264-2.063,15.337,15.337,0,0,0-1.816-5.5,17.661,17.661,0,0,0-4.215-5.378,13.776,13.776,0,0,0-2.027-1.6,20.843,20.843,0,0,0-8.167-3.184,7.457,7.457,0,0,1-1.385-.213H23.027c-.08.118-.206.065-.312.078a18.442,18.442,0,0,0-3.426.631,25.006,25.006,0,0,0,1.9,1.883c1.072,1.074,2.177,2.119,3.271,3.174.3.293.619.574.929.862.091.1.176.206.275.3l3.409,3.3c.106.1.242.183.276.342a2.25,2.25,0,0,1,.855.762c.185.258.387.516.574.774,1.2,1.765,2.451,3.491,3.723,5.213.1.153.2.311.306.463a1.579,1.579,0,0,1-.037,2.2c-.945,1.325-1.883,2.655-2.826,3.981-.616.867-1.242,1.729-1.85,2.6a1.5,1.5,0,0,1-1.29.685c-.785.009-1.572-.018-2.356.011a1.72,1.72,0,0,1-1.783-1.046c-.15-.021-.21-.169-.34-.218a.5.5,0,0,0-.129.029.572.572,0,0,0-.117.056.572.572,0,0,1,.117-.056.5.5,0,0,1,.129-.029c-.18-.186-.358-.376-.54-.559-.679-.685-1.419-1.317-2.064-2.033-.733,1.008-1.491,2-2.192,3.03A1.7,1.7,0,0,1,18,238.2c-.723-.006-1.446-.02-2.169,0a1.828,1.828,0,0,1-1.777-.9c-.007-.023-.016-.047-.023-.069a.6.6,0,0,0-.057-.085c-.15-.031-.225-.155-.321-.248-.874-.839-1.739-1.683-2.613-2.521-.515-.5-1.05-.994-1.576-1.491a.471.471,0,0,0-.062-.091q-2.047-1.986-4.1-3.968a.348.348,0,0,0-.258-.138v2.58a5.591,5.591,0,0,1,.28,1.571m36.537-11.518c-.107.023-.159.111-.217.191.057-.081.108-.169.217-.191M5.956,235.177a.328.328,0,0,0,.168-.057.328.328,0,0,1-.168.057" transform="translate(299.051 6973.684)" fill="#61529a"/>
    <path id="Trazado_902121" data-name="Trazado 902121" d="M14.032,237.225l-.057-.085Z" transform="translate(299.051 6973.684)" fill="#5f5099"/>
    <path id="Trazado_902122" data-name="Trazado 902122" d="M976.222,162.206a21.656,21.656,0,1,1,21.655-21.656,21.681,21.681,0,0,1-21.655,21.656" transform="translate(299.051 6973.684)" fill="#61529a"/>
    <path id="Trazado_902123" data-name="Trazado 902123" d="M976.221,121.394a19.156,19.156,0,1,1-19.156,19.156,19.156,19.156,0,0,1,19.156-19.156m0-5a24.156,24.156,0,1,0,24.156,24.156,24.183,24.183,0,0,0-24.156-24.156" transform="translate(299.051 6973.684)" fill="#fff"/>
    <path id="Trazado_902125" data-name="Trazado 902125" d="M995.322,141.658v.368c-.08.046-.071.129-.074.2a12.644,12.644,0,0,1-.336,2.248,18.835,18.835,0,0,1-9.822,12.684,15.911,15.911,0,0,1-4,1.548,25.177,25.177,0,0,0-1.9-1.884c-1.072-1.073-2.177-2.119-3.271-3.174-.3-.293-.619-.574-.93-.862-.09-.1-.177-.206-.275-.3q-1.7-1.653-3.409-3.3c-.105-.1-.241-.183-.275-.342a2.389,2.389,0,0,0,.668.129c.824,0,1.647.007,2.472,0a1.629,1.629,0,0,0,1.265-2.675c-1.282-1.779-2.549-3.568-3.841-5.339a.56.56,0,0,1,.011-.774c1.283-1.764,2.54-3.543,3.816-5.312a1.65,1.65,0,0,0,.295-1.659c.151.021.212.171.341.218.179.186.358.376.54.559.68.685,1.419,1.317,2.064,2.033,0,.149-.107.245-.185.353q-1.153,1.623-2.313,3.242a1.506,1.506,0,0,0-.021,1.888q2.409,3.4,4.842,6.784a1.524,1.524,0,0,0,1.245.681c.9.014,1.806.017,2.7,0a1.48,1.48,0,0,0,1.174-.591,1.582,1.582,0,0,0-.053-2.129c-1.264-1.766-2.524-3.533-3.8-5.289a.553.553,0,0,1,0-.757c1.268-1.747,2.51-3.511,3.78-5.257a1.805,1.805,0,0,0,.372-1.722c.15.031.224.155.321.248.872.838,1.739,1.683,2.612,2.52.516.5,1.05.995,1.575,1.49a.529.529,0,0,0,.063.092q2.049,1.984,4.1,3.968a.355.355,0,0,0,.258.138" transform="translate(299.051 6973.684)" fill="#473b8a"/>
    <path id="Trazado_902126" data-name="Trazado 902126" d="M965.878,142.087c-.1-.155-.2-.311-.306-.463a1.58,1.58,0,0,1,.036-2.2q1.419-1.986,2.825-3.98c.616-.867,1.241-1.729,1.849-2.6a1.514,1.514,0,0,1,1.29-.685c.785-.009,1.572.018,2.356-.011a1.719,1.719,0,0,1,1.782,1.047,1.651,1.651,0,0,1-.3,1.659c-1.274,1.768-2.533,3.547-3.815,5.311a.559.559,0,0,0-.012.774c1.29,1.772,2.559,3.561,3.842,5.34a1.629,1.629,0,0,1-1.266,2.675c-.824.01-1.647,0-2.471,0a2.448,2.448,0,0,1-.668-.129,2.245,2.245,0,0,1-.856-.762c-.184-.258-.387-.516-.574-.774-1.2-1.765-2.451-3.492-3.722-5.213" transform="translate(299.051 6973.684)" fill="#fffefe"/>
    <path id="Trazado_902127" data-name="Trazado 902127" d="M986.4,133.2a1.805,1.805,0,0,1-.371,1.722c-1.271,1.745-2.513,3.509-3.781,5.256a.554.554,0,0,0,0,.758q1.91,2.637,3.8,5.288a1.582,1.582,0,0,1,.053,2.13,1.479,1.479,0,0,1-1.172.591q-1.353.024-2.709,0a1.529,1.529,0,0,1-1.245-.681q-2.429-3.389-4.841-6.784a1.5,1.5,0,0,1,.021-1.888q1.161-1.62,2.312-3.242c.077-.108.186-.2.186-.353.734-1.008,1.491-2,2.193-3.03a1.7,1.7,0,0,1,1.526-.82c.722.007,1.446.021,2.168,0a1.828,1.828,0,0,1,1.777.9l.024.07.056.085Z" transform="translate(299.051 6973.684)" fill="#fffefe"/>
    <path id="Trazado_902128" data-name="Trazado 902128" d="M995.042,137.507a14.693,14.693,0,0,0-.552-2.332,1.716,1.716,0,0,0-.038-.214,18.021,18.021,0,0,0-1.677-3.722,10.893,10.893,0,0,0-1.469-2.076,7.24,7.24,0,0,0-1.083-1.31,15.3,15.3,0,0,0-2.594-2.274,13.261,13.261,0,0,0-2.051-1.327c-.1-.066-.206-.139-.315-.2a17.738,17.738,0,0,0-4.256-1.661,8.5,8.5,0,0,0-2.094-.418.975.975,0,0,0-.175-.059,19.56,19.56,0,0,0-6.236.065,19.227,19.227,0,0,0-11.751,6.638,18.08,18.08,0,0,0-4.4,12.851,7.3,7.3,0,0,0,.264,2.063,15.338,15.338,0,0,0,1.816,5.5,17.645,17.645,0,0,0,4.215,5.378,13.777,13.777,0,0,0,2.027,1.6,20.843,20.843,0,0,0,8.167,3.184,7.458,7.458,0,0,1,1.385.213h3.123c.08-.118.206-.065.312-.078a18.442,18.442,0,0,0,3.426-.631,25.006,25.006,0,0,0-1.9-1.883c-1.072-1.074-2.177-2.119-3.271-3.174-.3-.293-.619-.574-.929-.862-.091-.1-.176-.206-.275-.3l-3.409-3.3c-.106-.1-.242-.183-.276-.342a2.25,2.25,0,0,1-.855-.762c-.185-.258-.387-.516-.574-.774-1.2-1.765-2.451-3.491-3.723-5.213-.1-.153-.2-.311-.306-.463a1.579,1.579,0,0,1,.037-2.2c.945-1.325,1.883-2.655,2.826-3.981.616-.867,1.242-1.729,1.85-2.6a1.5,1.5,0,0,1,1.289-.685c.786-.009,1.573.018,2.357-.011a1.72,1.72,0,0,1,1.783,1.046c.149.021.21.169.34.218a.5.5,0,0,0,.129-.029.57.57,0,0,0,.117-.056.57.57,0,0,1-.117.056.5.5,0,0,1-.129.029c.18.186.358.376.54.559.679.685,1.419,1.317,2.063,2.033.734-1.008,1.492-2,2.193-3.03a1.7,1.7,0,0,1,1.526-.819c.723.006,1.446.02,2.169,0a1.828,1.828,0,0,1,1.777.9c.007.023.016.047.023.069a.6.6,0,0,0,.057.085c.15.031.225.155.321.248.874.839,1.739,1.683,2.612,2.521.516.5,1.05.994,1.577,1.491a.428.428,0,0,0,.062.091q2.047,1.986,4.1,3.968a.348.348,0,0,0,.258.138v-2.58a5.591,5.591,0,0,1-.28-1.571m-36.537,11.518c.107-.023.159-.111.217-.191-.057.081-.108.169-.217.191m35.908-13.859a.328.328,0,0,0-.168.057.328.328,0,0,1,.168-.057" transform="translate(299.051 6973.684)" fill="#61529a"/>
    <path id="Trazado_902129" data-name="Trazado 902129" d="M986.345,133.118l.057.085Z" transform="translate(299.051 6973.684)" fill="#5f5099"/>
    <path id="Trazado_902130" data-name="Trazado 902130" d="M0,0H1000.377V351.131H0Z" transform="translate(299.051 6973.684)" fill="none"/>
  </g>
</svg>
